<?xml version='1.0' encoding='utf-8'?>
<svg xmlns="http://www.w3.org/2000/svg" viewBox="653.551 520.104 367.494 121.427" width="367.494" height="121.427"><g><path id="path21" d="m 59.049817,4.75e-4 v -2.4140625 c -5.578125,-0.5859375 -6.796875,-1.5 -9.5625,-8.9414065 -5.695312,-14.800781 -11.226562,-29.777344 -16.757812,-44.707031 l -3,0.75 -18.09375,43.957031 C 8.5888797,-3.8549938 7.3701297,-3.280775 1.7802859,-2.4135875 V 4.75e-4 H 20.799817 v -2.4140625 c -6.515625,-0.6914063 -7.207031,-1.6757813 -5.355469,-6.8085938 1.089844,-3.3398437 2.238282,-6.6210937 3.679688,-10.4765627 h 18.492187 c 1.851563,4.839844 3.410157,9.035156 4.617188,12.386719 1.148437,3.3984375 0.398437,4.1484375 -4.957031,4.8984375 V 4.75e-4 Z M 36.350598,-23.507338 H 20.565442 c 2.589844,-6.796875 5.308594,-14.003906 8.074219,-20.976562 h 0.164062 z m 0,0" style="fill-opacity:1;fill-rule:nonzero;" aria-label="A" transform="matrix(1.3333333,0,0,1.3333333,659.17707,604.56187)" fill="#111111" />
    <path id="path22" d="m 40.439961,-36.761244 c -3.164063,0.410156 -7.605469,0.925781 -11.976563,1.160156 C 25.756367,-36.9839 22.990742,-37.7339 20.166523,-37.7339 h -0.117187 c -6.796875,0 -15.6093751,4.3125 -15.6093751,13.992187 0,5.589844 3.5039063,9.621094 7.5468751,11.296875 -1.324219,1.617188 -4.0898438,3.8085942 -7.6054688,5.0742192 -0.1757813,0.9140625 0.1640625,2.53125 0.9726562,3.7382813 1.1015625,1.8515625 3.234375,3.69140625 6.3984376,4.6171875 -2.0156251,1.6054687 -5.0156251,3.796875 -6.9140626,5.578125 -1.3828125,1.21875 -2.25,2.8242187 -2.25,4.839844 0.1171875,4.792968 5.3085938,10.324218 15.0351566,10.324218 11.472656,0 21.726562,-8.191406 21.726562,-16.945312 0,-8.4726563 -7.3125,-10.078125 -12.503906,-10.078125 -2.941406,0 -5.871094,0.1640625 -8.871094,0.1640625 -3.855469,0 -5.414062,-1.6640625 -5.414062,-3.28125 0,-1.0898438 1.089843,-2.4140625 2.191406,-3.1640625 1.382812,0.175781 2.871094,0.398437 4.488281,0.398437 7.546875,0 15.328125,-4.429687 15.328125,-13.417968 0,-3 -0.984375,-5.589844 -2.425781,-7.382813 l 4.839844,0.234375 c 1.441406,-0.75 3.234375,-3 3.867187,-4.324219 z m -21.140625,1.675781 c 4.78125,0 7.722656,4.78125 7.722656,11.179688 0,6.621094 -3.175781,9.902344 -6.855469,9.960937 -4.664062,0 -7.722656,-4.664062 -7.722656,-11.179687 0,-6.621094 3.339844,-9.960938 6.796875,-9.960938 z M 20.916523,1.2661 c 3.515625,0 5.929688,0.1757812 8.179688,0.984375 2.472656,0.9140625 3.972656,3.046875 3.972656,5.9882812 0,5.1328128 -4.207031,9.1640628 -11.929687,9.1640628 -6.621094,0 -11.3437503,-3.75 -11.3437503,-8.1796878 0,-2.25 1.5585933,-4.4414062 3.6328123,-6.2226562 C 14.916523,1.781725 16.885273,1.2661 20.799336,1.2661 Z m 36.521485,-29.90625 v -9.386719 c -4.382813,1.792969 -8.414063,2.765625 -12.679688,3.457031 v 1.898438 c 4.78125,0.691406 5.238282,1.042969 5.238282,6.398437 v 17.460938 c 0,5.53125 -0.75,6.046875 -5.929688,6.5625 v 2.25 h 20.449219 v -2.25 c -6.679688,-0.515625 -7.078125,-1.03125 -7.078125,-6.5625 v -15.035156 c 1.839844,-4.5 4.429687,-6.972657 6.621094,-6.972657 1.441406,0 2.425781,0.515625 3.75,1.722657 0.515625,0.457031 1.265625,0.632812 2.296875,0.234375 1.851562,-0.867188 3,-2.589844 3,-4.558594 0,-2.074219 -2.074219,-4.3125 -5.191407,-4.3125 -3.972656,0 -7.488281,4.488281 -10.3125,9.09375 z M 85.9175,-44.882338 c 2.648438,0 4.605469,-2.132812 4.605469,-4.546875 0,-2.707031 -1.957031,-4.734375 -4.488281,-4.734375 -2.542969,0 -4.722657,2.027344 -4.722657,4.734375 0,2.414063 2.179688,4.546875 4.605469,4.546875 z M 96.288594,4.75e-4 v -2.25 C 90.815938,-2.8823375 90.241719,-3.3393688 90.241719,-9.1635875 V -37.909681 c -3.867188,1.5 -8.191406,2.472656 -12.796875,3.222656 v 2.015625 c 5.074219,0.867187 5.355469,1.277344 5.355469,6.574219 v 16.9335935 c 0,5.8828125 -0.632813,6.3984375 -5.988282,6.9140625 v 2.25 z m 0,0" style="fill-opacity:1;fill-rule:nonzero;" aria-label="gri" transform="matrix(1.3333333,0,0,1.3333333,738.69333,604.56187)" fill="#111111" />
    <path style="font-weight:700;font-size:80px;font-family:'SF UI Display';" d="m 10.234375,-49.492187 q 7.34375,-7.851563 19.882812,-7.851563 12.539063,0 19.84375,7.851563 7.34375,7.851562 7.34375,21.328125 0,13.437499 -7.34375,21.289062 -7.34375,7.8515625 -19.84375,7.8515625 -12.539062,0 -19.882812,-7.8515625 -7.3046875,-7.851563 -7.3046875,-21.289062 0,-13.476563 7.3046875,-21.328125 z m 30.898437,7.226562 Q 37.03125,-47.5 30.117187,-47.5 q -6.914062,0 -11.054687,5.234375 -4.101562,5.234375 -4.101562,14.101563 0,8.828125 4.101562,14.062499 4.101562,5.195313 11.054687,5.195313 6.914063,0 11.015625,-5.195313 4.101563,-5.234374 4.101563,-14.062499 0,-8.867188 -4.101563,-14.101563 z m 21.640625,26.210938 h 11.367188 q 0.390625,3.437499 3.632812,5.585937 3.28125,2.109375 8.007813,2.109375 4.6875,0 7.617187,-1.992188 2.96875,-2.03125 2.96875,-5.15625 0,-2.734374 -2.1875,-4.414062 -2.1875,-1.679687 -7.304687,-2.8125 l -7.34375,-1.601562 q -15.507813,-3.320313 -15.507813,-15.742188 0,-7.734375 6.015625,-12.5 6.054688,-4.765625 15.546875,-4.765625 9.765625,0 15.585943,4.648438 5.82031,4.609375 5.97656,12.304687 H 96.09375 q -0.273438,-3.554687 -3.164063,-5.585937 -2.851562,-2.070313 -7.304687,-2.070313 -4.375,0 -7.070313,1.914063 -2.65625,1.914062 -2.65625,5.039062 0,2.578125 2.148438,4.179688 2.1875,1.601562 7.070312,2.734375 l 6.835938,1.445312 q 8.476565,1.796875 12.343755,5.625 3.86718,3.789063 3.86718,10.234375 0,8.203125 -6.17187,13.046875 -6.171878,4.8046875 -16.67969,4.8046875 -10.195313,0 -16.25,-4.53125 Q 63.046875,-8.125 62.773437,-16.054687 Z" id="text22" transform="matrix(1.3333333,0,0,1.3333333,868.8268,604.56187)" aria-label="OS" fill="#111111" />
    </g></svg>