<?xml version='1.0' encoding='utf-8'?>
<svg xmlns="http://www.w3.org/2000/svg" viewBox="150.543 88.624 367.495 305.036" width="367.495" height="305.036"><g><path id="path2" d="m 0,0 c 2.234,-8.064 4.468,-16.128 6.702,-24.191 l 4.915,28.404 c 1.148,4.927 3.342,11.859 7.766,19.297 4.013,6.747 8.511,11.64 12.021,14.916 C 27.565,33.594 22.804,26.452 19.277,16.979 17.061,11.028 15.856,5.565 15.191,1.021 21.211,3.544 29.309,7.936 36.766,15.638 56.255,35.769 55.689,62.32 55.404,68.426 49.43,67.193 43.006,65.036 36.638,61.404 6.363,44.136 0.898,6.942 0,0" style="fill-opacity:1;fill-rule:nonzero;" transform="matrix(1.3333333,0,0,-1.3333333,311.3192,187.85813)" fill="#ffffff" />
    <path id="path3" d="m 0,0 c 5.769,-1.057 17.732,-4.094 28.723,-13.915 6.4,-5.718 10.318,-11.811 12.639,-16.213 2.234,-8.064 4.468,-16.127 6.702,-24.191 l -5.298,-3 -4.596,15.83 c -0.528,0.842 -1.317,2.085 -2.298,3.574 -2.21,3.357 -4.69,7.123 -6.766,9.575 -1.96,2.315 -5.379,5.606 -11.234,8.425 2.542,-1.765 6.237,-4.775 9.575,-9.447 3.379,-4.729 5.032,-9.259 5.872,-12.255 -4.216,0.85 -7.638,2.248 -10.34,3.702 C 4.183,-27.798 0.593,-4.364 0,0" style="fill-opacity:1;fill-rule:nonzero;" transform="matrix(1.3333333,0,0,-1.3333333,256.17027,147.68787)" fill="#ffffff" />
    <path id="path9" d="m 304.276,635.043 c -10.412,-2.863 -22.98,-7.259 -36.51,-14.171 v 0 c -11.32,-5.782 -20.751,-12.018 -28.341,-17.744 v 0 c -29.104,-16.491 -54.926,-19.967 -64.084,-9.448 v 0 c -1.78,2.045 -3.499,5.269 -3.831,10.596 v 0 c -0.104,2.852 0.115,6.478 1.277,10.469 v 0 c 3.303,11.341 11.879,17.575 15.064,19.66 v 0 c -0.001,-10e-4 -11.773,-6.216 -18.766,-20.171 v 0 c -1.838,-3.669 -10.482,-20.916 -3.159,-32.425 v 0 c 10.612,-16.681 46.21,-7.868 48.989,-7.149 v 0 c 11.3,2.923 19.444,7.311 31.404,15.701 v 0 c 14.265,10.009 25.219,18.249 32.681,24.001 v 0 c 6.848,5.279 12.941,10.15 22.595,14.936 v 0 c 7.421,3.678 13.974,5.835 18.512,7.106 v 0 c -5.277,-0.453 -10.554,-0.908 -15.831,-1.361" transform="matrix(1.3333333,0,0,-1.3333333,0,1024)" style="" fill="#ffffff" />
    <path id="path14" d="m 322.028,633.326 c -17.638,-5.415 -31.576,-20.511 -47.773,-33.837 v 0 c -4.989,-4.104 -12.954,-10.313 -23.617,-17.106 v 0 c -2.041,-1.282 -4.756,-2.895 -8.042,-4.596 v 0 c 0,0 -5.557,-2.877 -11.109,-5.006 v 0 c -7.184,-2.755 -23.466,-5.886 -44.934,-5.845 v 0 c 15.852,-0.883 32.834,-1.131 50.808,-0.445 v 0 c 7.752,0.298 15.287,0.752 22.597,1.339 v 0 c 14.357,3.169 49.666,13.154 68.553,44.553 v 0 c 2.706,4.5 4.838,9.045 6.51,13.532 v 0 c 0.508,1.857 1.148,5.257 -0.638,7.276 v 0 c -0.433,0.49 -1.575,1.538 -4.666,1.539 v 0 c -1.811,0 -4.29,-0.36 -7.689,-1.404" transform="matrix(1.3333333,0,0,-1.3333333,0,1024)" style="" fill="#ffffff" />
    <path id="path1" d="M 59.049358,0.00145469 V -2.4126078 c -5.578125,-0.5859375 -6.796875,-1.5 -9.5625,-8.9414062 -5.695313,-14.800781 -11.226563,-29.777344 -16.757813,-44.707031 l -3,0.75 -18.09375,43.957031 C 8.5884203,-3.8540141 7.3696703,-3.2797953 1.7798266,-2.4126078 V 0.00145469 H 20.799358 V -2.4126078 c -6.515625,-0.6914063 -7.207031,-1.6757813 -5.355469,-6.8085938 1.089844,-3.3398434 2.238281,-6.6210934 3.679688,-10.4765624 h 18.492187 c 1.851563,4.839844 3.410156,9.035156 4.617188,12.3867187 1.148437,3.3984375 0.398437,4.1484375 -4.957032,4.8984375 V 0.00145469 Z M 36.350139,-23.506358 H 20.564983 c 2.589844,-6.796875 5.308594,-14.003906 8.074219,-20.976562 h 0.164062 z m 63.729491,-13.253906 c -3.164061,0.410156 -7.605467,0.925781 -11.976561,1.160156 -2.707031,-1.382812 -5.472656,-2.132812 -8.296875,-2.132812 h -0.117188 c -6.796875,0 -15.609375,4.3125 -15.609375,13.992187 0,5.589844 3.503907,9.621094 7.546875,11.296875 -1.324218,1.617188 -4.089843,3.8085939 -7.605468,5.0742189 -0.175782,0.9140625 0.164062,2.53125 0.972656,3.7382813 1.101562,1.8515625 3.234375,3.69140624 6.398437,4.61718749 -2.015625,1.60546871 -5.015625,3.79687501 -6.914062,5.57812501 -1.382813,1.21875 -2.25,2.8242187 -2.25,4.8398433 0.117187,4.792969 5.308594,10.324219 15.035156,10.324219 11.472656,0 21.726563,-8.191406 21.726563,-16.9453123 0,-8.4726563 -7.3125,-10.078125 -12.503907,-10.078125 -2.941406,0 -5.871093,0.1640625 -8.871093,0.1640625 -3.855469,0 -5.414063,-1.6640625 -5.414063,-3.28125 0,-1.0898438 1.089844,-2.4140622 2.191406,-3.1640622 1.382813,0.175781 2.871094,0.398437 4.488282,0.398437 7.546875,0 15.328125,-4.429687 15.328125,-13.417969 0,-3 -0.984375,-5.589843 -2.425782,-7.382812 l 4.839844,0.234375 c 1.441406,-0.75 3.234375,-3 3.86719,-4.324219 z m -21.140624,1.675781 c 4.78125,0 7.722657,4.78125 7.722657,11.179688 0,6.621093 -3.175782,9.902343 -6.855469,9.960937 -4.664063,0 -7.722656,-4.664062 -7.722656,-11.179687 0,-6.621094 3.339843,-9.960938 6.796875,-9.960938 z m 1.617188,36.3515627 c 3.515625,0 5.929687,0.1757812 8.179687,0.984375 2.472657,0.9140625 3.972657,3.046875 3.972657,5.9882812 0,5.1328121 -4.207032,9.1640621 -11.929688,9.1640621 -6.621094,0 -11.34375,-3.75 -11.34375,-8.1796871 0,-2.25 1.558594,-4.4414062 3.632813,-6.2226562 1.488281,-1.21875 3.457031,-1.734375 7.371093,-1.734375 z M 117.07475,-28.63917 v -9.386719 c -4.38281,1.792969 -8.41406,2.765625 -12.67969,3.457031 v 1.898438 c 4.78125,0.691406 5.23828,1.042968 5.23828,6.398437 v 17.4609377 c 0,5.53125 -0.75,6.046875 -5.92969,6.5625 v 2.24999999 h 20.44922 V -2.2485453 c -6.67968,-0.515625 -7.07812,-1.03125 -7.07812,-6.5625 V -23.846202 c 1.83984,-4.5 4.42969,-6.972656 6.62109,-6.972656 1.44141,0 2.42578,0.515625 3.75,1.722656 0.51563,0.457032 1.26563,0.632813 2.29688,0.234375 1.85156,-0.867187 3,-2.589843 3,-4.558593 0,-2.074219 -2.07422,-4.3125 -5.19141,-4.3125 -3.97266,0 -7.48828,4.488281 -10.3125,9.09375 z m 28.47949,-16.242188 c 2.64844,0 4.60547,-2.132812 4.60547,-4.546875 0,-2.707031 -1.95703,-4.734375 -4.48828,-4.734375 -2.54297,0 -4.72266,2.027344 -4.72266,4.734375 0,2.414063 2.17969,4.546875 4.60547,4.546875 z M 155.92533,0.00145469 V -2.2485453 c -5.47265,-0.6328125 -6.04687,-1.0898438 -6.04687,-6.9140625 V -37.908702 c -3.86719,1.5 -8.19141,2.472657 -12.79688,3.222657 v 2.015625 c 5.07422,0.867187 5.35547,1.277343 5.35547,6.574218 v 16.9335942 c 0,5.8828125 -0.63281,6.3984375 -5.98828,6.9140625 v 2.24999999 z m 0,0" style="fill-opacity:1;fill-rule:nonzero;" aria-label="Agri" transform="matrix(1.3333333,0,0,1.3333333,156.16987,356.68947)" fill="#ffffff" />
    <path style="font-weight:700;font-size:80px;font-family:'SF UI Display';" d="m 10.234375,-49.492187 q 7.34375,-7.851563 19.882812,-7.851563 12.539063,0 19.84375,7.851563 7.34375,7.851562 7.34375,21.328125 0,13.437499 -7.34375,21.289062 -7.34375,7.8515625 -19.84375,7.8515625 -12.539062,0 -19.882812,-7.8515625 -7.3046875,-7.851563 -7.3046875,-21.289062 0,-13.476563 7.3046875,-21.328125 z m 30.898437,7.226562 Q 37.03125,-47.5 30.117187,-47.5 q -6.914062,0 -11.054687,5.234375 -4.101562,5.234375 -4.101562,14.101563 0,8.828125 4.101562,14.062499 4.101562,5.195313 11.054687,5.195313 6.914063,0 11.015625,-5.195313 4.101563,-5.234374 4.101563,-14.062499 0,-8.867188 -4.101563,-14.101563 z m 21.640625,26.210938 h 11.367188 q 0.390625,3.437499 3.632812,5.585937 3.28125,2.109375 8.007813,2.109375 4.6875,0 7.617187,-1.992188 2.96875,-2.03125 2.96875,-5.15625 0,-2.734374 -2.1875,-4.414062 -2.1875,-1.679687 -7.304687,-2.8125 l -7.34375,-1.601562 q -15.507813,-3.320313 -15.507813,-15.742188 0,-7.734375 6.015625,-12.5 6.054688,-4.765625 15.546875,-4.765625 9.765625,0 15.585943,4.648438 5.82031,4.609375 5.97656,12.304687 H 96.09375 q -0.273438,-3.554687 -3.164063,-5.585937 -2.851562,-2.070313 -7.304687,-2.070313 -4.375,0 -7.070313,1.914063 -2.65625,1.914062 -2.65625,5.039062 0,2.578125 2.148438,4.179688 2.1875,1.601562 7.070312,2.734375 l 6.835938,1.445312 q 8.476565,1.796875 12.343755,5.625 3.86718,3.789063 3.86718,10.234375 0,8.203125 -6.17187,13.046875 -6.171878,4.8046875 -16.67969,4.8046875 -10.195313,0 -16.25,-4.53125 Q 63.046875,-8.125 62.773437,-16.054687 Z" id="text1" transform="matrix(1.3333333,0,0,1.3333333,365.8196,356.68947)" aria-label="OS" fill="#ffffff" />
    </g></svg>