<?xml version='1.0' encoding='utf-8'?>
<svg xmlns="http://www.w3.org/2000/svg" viewBox="723.924 122.028 246.046 188.581" width="246.046" height="188.581"><g><path id="path23" d="m 0,0 c 2.234,-8.064 4.468,-16.128 6.702,-24.191 l 4.915,28.404 c 1.148,4.927 3.342,11.859 7.766,19.297 4.013,6.747 8.511,11.64 12.021,14.916 C 27.565,33.594 22.804,26.452 19.277,16.979 17.061,11.028 15.856,5.565 15.191,1.021 21.211,3.544 29.309,7.936 36.766,15.638 56.255,35.769 55.689,62.32 55.404,68.426 49.43,67.193 43.006,65.036 36.638,61.404 6.363,44.136 0.898,6.942 0,0" style="fill-opacity:1;fill-rule:nonzero;" transform="matrix(1.3333333,0,0,-1.3333333,825.8724,221.2624)" fill="#111111" />
    <path id="path24" d="m 0,0 c 5.769,-1.057 17.732,-4.094 28.723,-13.915 6.4,-5.718 10.318,-11.811 12.639,-16.213 2.234,-8.063 4.468,-16.127 6.702,-24.191 l -5.298,-3 -4.596,15.83 c -0.528,0.842 -1.317,2.085 -2.298,3.574 -2.21,3.357 -4.69,7.123 -6.766,9.575 -1.96,2.315 -5.379,5.606 -11.234,8.425 2.542,-1.765 6.237,-4.775 9.575,-9.447 3.379,-4.729 5.032,-9.259 5.872,-12.255 -4.216,0.85 -7.638,2.248 -10.34,3.702 C 4.183,-27.798 0.593,-4.363 0,0" style="fill-opacity:1;fill-rule:nonzero;" transform="matrix(1.3333333,0,0,-1.3333333,770.72333,181.09227)" fill="#111111" />
    <path id="path30" d="m 690.191,609.989 c -10.412,-2.863 -22.98,-7.258 -36.51,-14.17 v 0 c -11.32,-5.783 -20.751,-12.018 -28.34,-17.745 v 0 c -29.105,-16.49 -54.927,-19.966 -64.086,-9.446 v 0 c -1.779,2.044 -3.497,5.268 -3.829,10.596 v 0 c -0.106,2.851 0.114,6.477 1.276,10.468 v 0 c 3.304,11.341 11.878,17.575 15.064,19.659 v 0 c -10e-4,0 -11.773,-6.216 -18.766,-20.171 v 0 c -1.838,-3.668 -10.482,-20.916 -3.16,-32.425 v 0 c 10.612,-16.68 46.211,-7.867 48.99,-7.148 v 0 c 11.3,2.923 19.445,7.31 31.404,15.702 v 0 c 14.265,10.008 25.22,18.247 32.681,23.999 v 0 c 6.848,5.28 12.942,10.15 22.596,14.937 v 0 c 7.419,3.678 13.972,5.834 18.51,7.106 v 0 c -5.276,-0.454 -10.553,-0.908 -15.83,-1.362" transform="matrix(1.3333333,0,0,-1.3333333,0,1024)" style="" fill="#111111" />
    <path id="path35" d="m 707.944,608.273 c -17.639,-5.415 -31.578,-20.511 -47.774,-33.837 v 0 c -4.988,-4.104 -12.953,-10.313 -23.617,-17.107 v 0 c -2.041,-1.281 -4.757,-2.894 -8.043,-4.595 v 0 c 0,0 -5.556,-2.877 -11.108,-5.007 v 0 c -7.184,-2.755 -23.467,-5.886 -44.934,-5.844 v 0 c 15.851,-0.883 32.833,-1.132 50.809,-0.445 v 0 c 7.751,0.297 15.286,0.752 22.595,1.338 v 0 c 14.358,3.169 49.667,13.155 68.553,44.554 v 0 c 2.707,4.499 4.84,9.045 6.511,13.532 v 0 c 0.508,1.856 1.148,5.256 -0.638,7.276 v 0 c -0.433,0.489 -1.576,1.538 -4.666,1.538 v 0 c -1.811,0 -4.29,-0.36 -7.688,-1.403" transform="matrix(1.3333333,0,0,-1.3333333,0,1024)" style="" fill="#111111" />
    </g></svg>