<?xml version='1.0' encoding='utf-8'?>
<svg xmlns="http://www.w3.org/2000/svg" viewBox="815.809 503.999 609.957 188.581" width="609.957" height="188.581"><g><path id="path15" d="M 61.417459,-25.523941 H 38.659647 v 2.414063 c 8.753906,0.691406 9.28125,1.277344 9.28125,7.5 v 6.9140624 c 0,3.2226562 -1.042969,4.4296875 -2.882813,5.4140625 -1.851562,0.9140625 -4.617187,1.5 -7.441406,1.5 -16.875,0 -24.246094,-14.1796879 -24.246094,-26.3320309 0,-15.386719 9.785157,-24.832032 22.980469,-24.832032 8.648438,0 15.445313,3.105469 17.519531,13.59375 l 2.53125,-0.574218 c -0.691406,-5.988282 -1.089843,-10.664063 -1.324218,-13.59375 -2.941407,-0.644532 -9.902344,-2.542969 -17.402344,-2.542969 -17.507813,0 -33.8789064,9.679687 -33.8789064,29.039062 0,16.769532 13.1367184,28.3476566 32.7304684,28.3476566 7.207032,0 14.578125,-2.01562497 20.050782,-3.28125 -0.515625,-2.1328125 -0.574219,-4.8398437 -0.574219,-7.78125 v -7.0312496 c 0,-5.121094 0.28125,-5.53125 5.414062,-6.339844 z m 17.399414,-3.117187 v -9.386719 c -4.382812,1.792969 -8.414062,2.765625 -12.679687,3.457031 v 1.898438 c 4.78125,0.691406 5.238281,1.042969 5.238281,6.398437 v 17.4609379 c 0,5.53125 -0.75,6.046875 -5.929687,6.5625 V -5.03125e-4 H 85.894998 V -2.2505031 c -6.679687,-0.515625 -7.078125,-1.03125 -7.078125,-6.5625 V -23.848159 c 1.839844,-4.5 4.429688,-6.972657 6.621094,-6.972657 1.441406,0 2.425781,0.515625 3.75,1.722657 0.515625,0.457031 1.265625,0.632812 2.296875,0.234375 1.851563,-0.867188 3,-2.589844 3,-4.558594 0,-2.074219 -2.074219,-4.3125 -5.191406,-4.3125 -3.972656,0 -7.488281,4.488281 -10.3125,9.09375 z m 48.216797,19.3124999 c -3.10547,2.8710937 -6.38672,4.1953125 -9.90234,4.1953125 -5.94141,0 -12.32813,-4.6054688 -12.50391,-15.4921874 9.90234,-0.351563 20.625,-1.207031 22.18359,-1.441406 1.54688,-0.351563 2.01563,-1.089844 2.01563,-2.707032 0,-6.679687 -5.82422,-12.960937 -13.13672,-12.960937 h -0.0586 c -4.5586,0 -9.22266,2.414062 -12.90235,6.445312 -3.457028,3.75 -5.484372,8.824219 -5.484372,14.402344 0,9.3984376 6.222652,17.87109388 16.769532,17.87109388 2.76562,0 8.92969,-1.5 14.46094,-8.47265628 z M 113.6743,-34.570816 c 4.48828,0 7.2539,4.089844 7.2539,8.53125 0,1.089844 -0.51562,1.546875 -2.01562,1.605469 -4.78125,0.175781 -9.32813,0.175781 -13.88672,0.175781 1.20703,-7.03125 4.89844,-10.3125 8.58984,-10.3125 z m 50.58984,25.2421879 c -3.10547,2.8710937 -6.38672,4.1953125 -9.90234,4.1953125 -5.94141,0 -12.32813,-4.6054688 -12.50391,-15.4921874 9.90234,-0.351563 20.625,-1.207031 22.18359,-1.441406 1.54688,-0.351563 2.01563,-1.089844 2.01563,-2.707032 0,-6.679687 -5.82422,-12.960937 -13.13672,-12.960937 h -0.0586 c -4.5586,0 -9.22266,2.414062 -12.90235,6.445312 -3.45703,3.75 -5.48437,8.824219 -5.48437,14.402344 0,9.3984376 6.22265,17.87109388 16.76953,17.87109388 2.76562,0 8.92969,-1.5 14.46094,-8.47265628 z M 150.90476,-34.570816 c 4.48829,0 7.25391,4.089844 7.25391,8.53125 0,1.089844 -0.51562,1.546875 -2.01562,1.605469 -4.78125,0.175781 -9.32813,0.175781 -13.88672,0.175781 1.20703,-7.03125 4.89843,-10.3125 8.58984,-10.3125 z M 213.69969,-5.03125e-4 V -2.2505031 c -4.95704,-0.6328125 -5.47266,-0.8554688 -5.47266,-6.6210938 V -24.598159 c 0,-8.355469 -4.32422,-13.136719 -11.12109,-13.136719 -2.53125,0 -4.66407,0.914062 -7.08985,2.472656 -2.1914,1.441406 -4.03125,2.765625 -5.7539,4.03125 v -6.796875 c -3.98438,1.617188 -8.41407,2.707031 -12.50391,3.339844 v 2.132812 c 4.48828,0.808594 5.0625,1.160157 5.0625,6.632813 v 16.9335936 c 0,5.6484375 -0.45703,6.046875 -6.16406,6.7382813 v 2.249999975 h 19.01953 V -2.2505031 c -4.95703,-0.515625 -5.41406,-0.8554688 -5.41406,-6.6210938 V -28.348159 c 2.58984,-2.132813 5.7539,-4.148438 8.98828,-4.148438 5.23828,0 7.60547,3.515625 7.60547,9.386719 v 13.7226561 c 0,5.9296875 -0.58594,6.6210938 -5.47266,7.1367188 v 2.249999975 z m 39.34863,-3.457031275 -0.85547,-2.25 c -0.92578,0.5273438 -2.07422,0.9257813 -3.05859,0.9257813 -1.5586,0 -3.0586,-1.265625 -3.0586,-5.015625 V -24.949722 c 0,-4.488281 -0.91406,-8.003906 -4.08984,-10.652344 -1.95703,-1.5 -4.42969,-2.132812 -7.13672,-2.132812 -4.78125,0.914062 -10.60547,4.148437 -13.07813,5.929687 -1.67578,1.148438 -2.76562,2.191407 -2.76562,3.457032 0,2.015625 2.23828,3.75 3.91406,3.75 1.32422,0 2.25,-0.585938 2.76563,-2.074219 0.75,-2.707031 1.5,-4.617188 2.58984,-5.707031 0.86719,-0.925782 2.13281,-1.5 3.63281,-1.5 4.08985,0 6.85547,3.222656 6.85547,9.28125 v 1.488281 c -1.83984,1.558594 -7.78125,3.75 -13.2539,5.484375 -4.66407,1.488281 -6.97266,4.03125 -6.97266,8.2382811 0,5.296875 4.20703,10.37109378 10.60547,10.37109378 2.42578,0 6.45703,-3.05859378 9.91406,-5.24999998 0.39844,1.3242187 0.91406,2.484375 2.07422,3.57421873 0.91406,0.92578125 2.76562,1.67578125 4.37109,1.67578125 z m -14.28516,-3.5742187 c -1.5,1.5 -4.26562,2.765625 -6.28125,2.765625 -2.53125,0 -5.87109,-1.9570313 -5.87109,-6.3984379 0,-3.105468 1.83984,-4.78125 5.17969,-6.222656 1.79296,-0.796875 5.25,-2.414062 6.97265,-3.28125 z m 0,0" style="fill-opacity:1;fill-rule:nonzero;" aria-label="Greena" transform="matrix(1.3333333,0,0,1.3333333,1080.3679,657.53973)" fill="#111111" />
    <path id="path16" d="m 0,0 c 2.234,-8.064 4.468,-16.128 6.702,-24.191 l 4.915,28.404 c 1.148,4.927 3.342,11.859 7.766,19.297 4.013,6.747 8.511,11.64 12.021,14.916 C 27.565,33.594 22.804,26.452 19.277,16.979 17.061,11.028 15.856,5.565 15.191,1.021 21.211,3.544 29.309,7.936 36.766,15.638 56.255,35.769 55.689,62.32 55.404,68.426 49.43,67.193 43.006,65.036 36.638,61.404 6.363,44.136 0.898,6.942 0,0" style="fill-opacity:1;fill-rule:nonzero;" transform="matrix(1.3333333,0,0,-1.3333333,917.758,603.234)" fill="#111111" />
    <path id="path17" d="m 0,0 c 5.769,-1.057 17.732,-4.094 28.723,-13.915 6.4,-5.718 10.318,-11.811 12.639,-16.213 2.234,-8.064 4.468,-16.127 6.702,-24.191 l -5.298,-3 -4.596,15.83 c -0.528,0.842 -1.317,2.085 -2.298,3.574 -2.21,3.357 -4.69,7.123 -6.766,9.575 -1.96,2.315 -5.379,5.606 -11.234,8.425 2.542,-1.765 6.237,-4.775 9.575,-9.447 3.379,-4.729 5.032,-9.259 5.872,-12.255 -4.216,0.85 -7.638,2.248 -10.34,3.702 C 4.183,-27.798 0.593,-4.364 0,0" style="fill-opacity:1;fill-rule:nonzero;" transform="matrix(1.3333333,0,0,-1.3333333,862.60893,563.06387)" fill="#111111" />
    <path id="path23" d="m 759.106,323.51 c -10.412,-2.863 -22.981,-7.258 -36.511,-14.169 v 0 c -11.32,-5.784 -20.752,-12.019 -28.34,-17.746 v 0 c -29.106,-16.49 -54.927,-19.965 -64.086,-9.446 v 0 c -1.779,2.044 -3.497,5.269 -3.829,10.596 v 0 c -0.106,2.852 0.114,6.477 1.276,10.468 v 0 c 3.304,11.341 11.878,17.575 15.064,19.659 v 0 c -0.002,0 -11.774,-6.216 -18.766,-20.17 v 0 c -1.838,-3.668 -10.481,-20.917 -3.16,-32.426 v 0 c 10.613,-16.68 46.211,-7.868 48.99,-7.148 v 0 c 11.3,2.923 19.444,7.311 31.405,15.702 v 0 c 14.264,10.008 25.218,18.247 32.68,24 v 0 c 6.848,5.279 12.942,10.149 22.596,14.936 v 0 c 7.419,3.678 13.972,5.834 18.51,7.106 v 0 c -5.276,-0.454 -10.552,-0.907 -15.829,-1.362" transform="matrix(1.3333333,0,0,-1.3333333,0,1024)" style="" fill="#111111" />
    <path id="path28" d="m 776.857,321.795 c -17.639,-5.415 -31.576,-20.512 -47.772,-33.837 v 0 c -4.989,-4.105 -12.954,-10.314 -23.617,-17.107 v 0 c -2.041,-1.281 -4.758,-2.894 -8.044,-4.596 v 0 c 0,0 -5.556,-2.877 -11.108,-5.007 v 0 c -7.184,-2.755 -23.467,-5.886 -44.934,-5.843 v 0 c 15.851,-0.883 32.834,-1.133 50.809,-0.445 v 0 c 7.751,0.296 15.286,0.752 22.595,1.337 v 0 c 14.358,3.17 49.667,13.155 68.553,44.554 v 0 c 2.708,4.5 4.84,9.045 6.511,13.532 v 0 c 0.507,1.856 1.148,5.256 -0.638,7.277 v 0 c -0.433,0.489 -1.575,1.538 -4.666,1.538 v 0 c -1.811,0 -4.29,-0.36 -7.689,-1.403" transform="matrix(1.3333333,0,0,-1.3333333,0,1024)" style="" fill="#111111" />
    </g></svg>