<?xml version='1.0' encoding='utf-8'?>
<svg xmlns="http://www.w3.org/2000/svg" viewBox="810.440 109.094 246.046 188.581" width="246.046" height="188.581"><g><path id="path35" d="m 0,0 c 2.234,-8.064 4.468,-16.128 6.702,-24.191 l 4.915,28.404 c 1.148,4.927 3.342,11.859 7.766,19.297 4.013,6.747 8.511,11.64 12.021,14.916 C 27.565,33.594 22.804,26.452 19.277,16.979 17.061,11.028 15.856,5.565 15.191,1.021 21.211,3.544 29.309,7.936 36.766,15.638 56.255,35.769 55.689,62.32 55.404,68.426 49.43,67.193 43.006,65.036 36.638,61.404 6.363,44.136 0.898,6.942 0,0" style="fill-opacity:1;fill-rule:nonzero;" transform="matrix(1.3333333,0,0,-1.3333333,912.38827,208.32907)" fill="#ffffff" />
    <path id="path36" d="m 0,0 c 5.769,-1.057 17.732,-4.094 28.723,-13.915 6.4,-5.718 10.318,-11.811 12.639,-16.213 2.234,-8.064 4.468,-16.127 6.702,-24.191 l -5.298,-3 -4.596,15.83 c -0.528,0.842 -1.317,2.085 -2.298,3.574 -2.21,3.357 -4.69,7.123 -6.766,9.575 -1.96,2.315 -5.379,5.606 -11.234,8.425 2.542,-1.765 6.237,-4.775 9.575,-9.447 3.379,-4.729 5.032,-9.259 5.872,-12.255 -4.216,0.85 -7.639,2.248 -10.34,3.702 C 4.183,-27.798 0.593,-4.364 0,0" style="fill-opacity:1;fill-rule:nonzero;" transform="matrix(1.3333333,0,0,-1.3333333,857.23933,168.1588)" fill="#ffffff" />
    <path id="path42" d="m 755.078,619.69 c -10.412,-2.863 -22.98,-7.259 -36.51,-14.171 v 0 c -11.32,-5.782 -20.751,-12.018 -28.341,-17.744 v 0 C 661.123,571.284 635.3,567.808 626.143,578.327 v 0 c -1.781,2.045 -3.499,5.269 -3.831,10.596 v 0 c -0.104,2.852 0.115,6.477 1.277,10.469 v 0 c 3.303,11.341 11.878,17.575 15.064,19.66 v 0 c -10e-4,-10e-4 -11.773,-6.217 -18.766,-20.171 v 0 c -1.838,-3.669 -10.482,-20.916 -3.159,-32.425 v 0 c 10.612,-16.681 46.21,-7.868 48.988,-7.149 v 0 c 11.301,2.923 19.445,7.31 31.405,15.701 v 0 c 14.265,10.008 25.219,18.249 32.681,24 v 0 c 6.847,5.28 12.941,10.151 22.595,14.937 v 0 c 7.42,3.678 13.974,5.835 18.512,7.106 v 0 c -5.277,-0.454 -10.554,-0.908 -15.831,-1.361" transform="matrix(1.3333333,0,0,-1.3333333,0,1024)" style="" fill="#ffffff" />
    <path id="path47" d="m 772.83,617.973 c -17.638,-5.415 -31.577,-20.511 -47.773,-33.837 v 0 c -4.989,-4.104 -12.954,-10.313 -23.617,-17.106 v 0 c -2.041,-1.282 -4.757,-2.895 -8.042,-4.596 v 0 c 0,0 -5.557,-2.877 -11.109,-5.006 v 0 c -7.185,-2.755 -23.466,-5.887 -44.934,-5.845 v 0 c 15.851,-0.883 32.834,-1.131 50.808,-0.445 v 0 c 7.752,0.297 15.287,0.752 22.597,1.339 v 0 c 14.357,3.169 49.666,13.154 68.553,44.552 v 0 c 2.706,4.5 4.838,9.046 6.51,13.533 v 0 c 0.508,1.856 1.148,5.257 -0.638,7.276 v 0 c -0.433,0.489 -1.575,1.538 -4.666,1.538 v 0 c -1.811,10e-4 -4.291,-0.359 -7.689,-1.403" transform="matrix(1.3333333,0,0,-1.3333333,0,1024)" style="" fill="#ffffff" />
  </g></svg>