<?xml version='1.0' encoding='utf-8'?>
<svg xmlns="http://www.w3.org/2000/svg" viewBox="1077.430 574.789 348.336 92.516" width="348.336" height="92.516"><defs id="defs1">
    <linearGradient x1="0" y1="0" x2="1" y2="0" gradientUnits="userSpaceOnUse" gradientTransform="matrix(157.07841,0,0,-157.07841,163.02798,604.0495)" spreadMethod="pad" id="linearGradient9">
      <stop style="stop-opacity:1;stop-color:#0359b4;" offset="0" id="stop3" />
      <stop style="stop-opacity:1;stop-color:#0359b4;" offset="0.00000111" id="stop4" />
      <stop style="stop-opacity:1;stop-color:#0359b4;" offset="0.12562916" id="stop5" />
      <stop style="stop-opacity:1;stop-color:#1d7186;" offset="0.561278" id="stop6" />
      <stop style="stop-opacity:1;stop-color:#1d7186;" offset="0.58432962" id="stop7" />
      <stop style="stop-opacity:1;stop-color:#368958;" offset="0.96099" id="stop8" />
      <stop style="stop-opacity:1;stop-color:#368958;" offset="1" id="stop9" />
    </linearGradient>
    <linearGradient x1="0" y1="0" x2="1" y2="0" gradientUnits="userSpaceOnUse" gradientTransform="matrix(149.00909,0,0,-149.00909,186.55321,600.41339)" spreadMethod="pad" id="linearGradient14">
      <stop style="stop-opacity:1;stop-color:#66b701;" offset="0" id="stop10" />
      <stop style="stop-opacity:1;stop-color:#66b701;" offset="0.0391064" id="stop11" />
      <stop style="stop-opacity:1;stop-color:#66b701;" offset="0.27309021" id="stop12" />
      <stop style="stop-opacity:1;stop-color:#0359b4;" offset="0.830168" id="stop13" />
      <stop style="stop-opacity:1;stop-color:#0359b4;" offset="1" id="stop14" />
    </linearGradient>
    <linearGradient x1="0" y1="0" x2="1" y2="0" gradientUnits="userSpaceOnUse" gradientTransform="matrix(157.07841,0,0,-157.07841,617.85706,292.51758)" spreadMethod="pad" id="linearGradient23">
      <stop style="stop-opacity:1;stop-color:#0359b4;" offset="0" id="stop17" />
      <stop style="stop-opacity:1;stop-color:#0359b4;" offset="0.00000111" id="stop18" />
      <stop style="stop-opacity:1;stop-color:#0359b4;" offset="0.12562916" id="stop19" />
      <stop style="stop-opacity:1;stop-color:#1d7186;" offset="0.561278" id="stop20" />
      <stop style="stop-opacity:1;stop-color:#1d7186;" offset="0.58432962" id="stop21" />
      <stop style="stop-opacity:1;stop-color:#368958;" offset="0.96099" id="stop22" />
      <stop style="stop-opacity:1;stop-color:#368958;" offset="1" id="stop23" />
    </linearGradient>
    <linearGradient x1="0" y1="0" x2="1" y2="0" gradientUnits="userSpaceOnUse" gradientTransform="matrix(149.00909,0,0,-149.00909,641.38226,288.88147)" spreadMethod="pad" id="linearGradient28">
      <stop style="stop-opacity:1;stop-color:#66b701;" offset="0" id="stop24" />
      <stop style="stop-opacity:1;stop-color:#66b701;" offset="0.0391064" id="stop25" />
      <stop style="stop-opacity:1;stop-color:#66b701;" offset="0.27309021" id="stop26" />
      <stop style="stop-opacity:1;stop-color:#0359b4;" offset="0.830168" id="stop27" />
      <stop style="stop-opacity:1;stop-color:#0359b4;" offset="1" id="stop28" />
    </linearGradient>
    <linearGradient x1="0" y1="0" x2="1" y2="0" gradientUnits="userSpaceOnUse" gradientTransform="matrix(157.07841,0,0,-157.07841,613.82977,588.69635)" spreadMethod="pad" id="linearGradient42">
      <stop style="stop-opacity:1;stop-color:#0359b4;" offset="0" id="stop36" />
      <stop style="stop-opacity:1;stop-color:#0359b4;" offset="0.00000111" id="stop37" />
      <stop style="stop-opacity:1;stop-color:#0359b4;" offset="0.12562916" id="stop38" />
      <stop style="stop-opacity:1;stop-color:#1d7186;" offset="0.561278" id="stop39" />
      <stop style="stop-opacity:1;stop-color:#1d7186;" offset="0.58432962" id="stop40" />
      <stop style="stop-opacity:1;stop-color:#368958;" offset="0.96099" id="stop41" />
      <stop style="stop-opacity:1;stop-color:#368958;" offset="1" id="stop42" />
    </linearGradient>
    <linearGradient x1="0" y1="0" x2="1" y2="0" gradientUnits="userSpaceOnUse" gradientTransform="matrix(149.00909,0,0,-149.00909,637.35504,585.06024)" spreadMethod="pad" id="linearGradient47">
      <stop style="stop-opacity:1;stop-color:#66b701;" offset="0" id="stop43" />
      <stop style="stop-opacity:1;stop-color:#66b701;" offset="0.0391064" id="stop44" />
      <stop style="stop-opacity:1;stop-color:#66b701;" offset="0.27309021" id="stop45" />
      <stop style="stop-opacity:1;stop-color:#0359b4;" offset="0.830168" id="stop46" />
      <stop style="stop-opacity:1;stop-color:#0359b4;" offset="1" id="stop47" />
    </linearGradient>
  </defs>
  <g><path id="path15" d="M 61.417459,-25.523941 H 38.659647 v 2.414063 c 8.753906,0.691406 9.28125,1.277344 9.28125,7.5 v 6.9140624 c 0,3.2226562 -1.042969,4.4296875 -2.882813,5.4140625 -1.851562,0.9140625 -4.617187,1.5 -7.441406,1.5 -16.875,0 -24.246094,-14.1796879 -24.246094,-26.3320309 0,-15.386719 9.785157,-24.832032 22.980469,-24.832032 8.648438,0 15.445313,3.105469 17.519531,13.59375 l 2.53125,-0.574218 c -0.691406,-5.988282 -1.089843,-10.664063 -1.324218,-13.59375 -2.941407,-0.644532 -9.902344,-2.542969 -17.402344,-2.542969 -17.507813,0 -33.8789064,9.679687 -33.8789064,29.039062 0,16.769532 13.1367184,28.3476566 32.7304684,28.3476566 7.207032,0 14.578125,-2.01562497 20.050782,-3.28125 -0.515625,-2.1328125 -0.574219,-4.8398437 -0.574219,-7.78125 v -7.0312496 c 0,-5.121094 0.28125,-5.53125 5.414062,-6.339844 z m 17.399414,-3.117187 v -9.386719 c -4.382812,1.792969 -8.414062,2.765625 -12.679687,3.457031 v 1.898438 c 4.78125,0.691406 5.238281,1.042969 5.238281,6.398437 v 17.4609379 c 0,5.53125 -0.75,6.046875 -5.929687,6.5625 V -5.03125e-4 H 85.894998 V -2.2505031 c -6.679687,-0.515625 -7.078125,-1.03125 -7.078125,-6.5625 V -23.848159 c 1.839844,-4.5 4.429688,-6.972657 6.621094,-6.972657 1.441406,0 2.425781,0.515625 3.75,1.722657 0.515625,0.457031 1.265625,0.632812 2.296875,0.234375 1.851563,-0.867188 3,-2.589844 3,-4.558594 0,-2.074219 -2.074219,-4.3125 -5.191406,-4.3125 -3.972656,0 -7.488281,4.488281 -10.3125,9.09375 z m 48.216797,19.3124999 c -3.10547,2.8710937 -6.38672,4.1953125 -9.90234,4.1953125 -5.94141,0 -12.32813,-4.6054688 -12.50391,-15.4921874 9.90234,-0.351563 20.625,-1.207031 22.18359,-1.441406 1.54688,-0.351563 2.01563,-1.089844 2.01563,-2.707032 0,-6.679687 -5.82422,-12.960937 -13.13672,-12.960937 h -0.0586 c -4.5586,0 -9.22266,2.414062 -12.90235,6.445312 -3.457028,3.75 -5.484372,8.824219 -5.484372,14.402344 0,9.3984376 6.222652,17.87109388 16.769532,17.87109388 2.76562,0 8.92969,-1.5 14.46094,-8.47265628 z M 113.6743,-34.570816 c 4.48828,0 7.2539,4.089844 7.2539,8.53125 0,1.089844 -0.51562,1.546875 -2.01562,1.605469 -4.78125,0.175781 -9.32813,0.175781 -13.88672,0.175781 1.20703,-7.03125 4.89844,-10.3125 8.58984,-10.3125 z m 50.58984,25.2421879 c -3.10547,2.8710937 -6.38672,4.1953125 -9.90234,4.1953125 -5.94141,0 -12.32813,-4.6054688 -12.50391,-15.4921874 9.90234,-0.351563 20.625,-1.207031 22.18359,-1.441406 1.54688,-0.351563 2.01563,-1.089844 2.01563,-2.707032 0,-6.679687 -5.82422,-12.960937 -13.13672,-12.960937 h -0.0586 c -4.5586,0 -9.22266,2.414062 -12.90235,6.445312 -3.45703,3.75 -5.48437,8.824219 -5.48437,14.402344 0,9.3984376 6.22265,17.87109388 16.76953,17.87109388 2.76562,0 8.92969,-1.5 14.46094,-8.47265628 z M 150.90476,-34.570816 c 4.48829,0 7.25391,4.089844 7.25391,8.53125 0,1.089844 -0.51562,1.546875 -2.01562,1.605469 -4.78125,0.175781 -9.32813,0.175781 -13.88672,0.175781 1.20703,-7.03125 4.89843,-10.3125 8.58984,-10.3125 z M 213.69969,-5.03125e-4 V -2.2505031 c -4.95704,-0.6328125 -5.47266,-0.8554688 -5.47266,-6.6210938 V -24.598159 c 0,-8.355469 -4.32422,-13.136719 -11.12109,-13.136719 -2.53125,0 -4.66407,0.914062 -7.08985,2.472656 -2.1914,1.441406 -4.03125,2.765625 -5.7539,4.03125 v -6.796875 c -3.98438,1.617188 -8.41407,2.707031 -12.50391,3.339844 v 2.132812 c 4.48828,0.808594 5.0625,1.160157 5.0625,6.632813 v 16.9335936 c 0,5.6484375 -0.45703,6.046875 -6.16406,6.7382813 v 2.249999975 h 19.01953 V -2.2505031 c -4.95703,-0.515625 -5.41406,-0.8554688 -5.41406,-6.6210938 V -28.348159 c 2.58984,-2.132813 5.7539,-4.148438 8.98828,-4.148438 5.23828,0 7.60547,3.515625 7.60547,9.386719 v 13.7226561 c 0,5.9296875 -0.58594,6.6210938 -5.47266,7.1367188 v 2.249999975 z m 39.34863,-3.457031275 -0.85547,-2.25 c -0.92578,0.5273438 -2.07422,0.9257813 -3.05859,0.9257813 -1.5586,0 -3.0586,-1.265625 -3.0586,-5.015625 V -24.949722 c 0,-4.488281 -0.91406,-8.003906 -4.08984,-10.652344 -1.95703,-1.5 -4.42969,-2.132812 -7.13672,-2.132812 -4.78125,0.914062 -10.60547,4.148437 -13.07813,5.929687 -1.67578,1.148438 -2.76562,2.191407 -2.76562,3.457032 0,2.015625 2.23828,3.75 3.91406,3.75 1.32422,0 2.25,-0.585938 2.76563,-2.074219 0.75,-2.707031 1.5,-4.617188 2.58984,-5.707031 0.86719,-0.925782 2.13281,-1.5 3.63281,-1.5 4.08985,0 6.85547,3.222656 6.85547,9.28125 v 1.488281 c -1.83984,1.558594 -7.78125,3.75 -13.2539,5.484375 -4.66407,1.488281 -6.97266,4.03125 -6.97266,8.2382811 0,5.296875 4.20703,10.37109378 10.60547,10.37109378 2.42578,0 6.45703,-3.05859378 9.91406,-5.24999998 0.39844,1.3242187 0.91406,2.484375 2.07422,3.57421873 0.91406,0.92578125 2.76562,1.67578125 4.37109,1.67578125 z m -14.28516,-3.5742187 c -1.5,1.5 -4.26562,2.765625 -6.28125,2.765625 -2.53125,0 -5.87109,-1.9570313 -5.87109,-6.3984379 0,-3.105468 1.83984,-4.78125 5.17969,-6.222656 1.79296,-0.796875 5.25,-2.414062 6.97265,-3.28125 z m 0,0" style="fill:#66b701;fill-opacity:1;fill-rule:nonzero;stroke:none" aria-label="Greena" transform="matrix(1.3333333,0,0,1.3333333,1080.3679,657.53973)" />
    </g></svg>