<?xml version='1.0' encoding='utf-8'?>
<svg xmlns="http://www.w3.org/2000/svg" version="1.1" id="svg1" width="1821.3333" height="1024" viewBox="0 0 1821.3333 1024">
  <defs id="defs1">
    <linearGradient x1="0" y1="0" x2="1" y2="0" gradientUnits="userSpaceOnUse" gradientTransform="matrix(157.07841,0,0,-157.07841,163.02798,604.0495)" spreadMethod="pad" id="linearGradient9">
      <stop style="stop-opacity:1;stop-color:#0359b4;" offset="0" id="stop3" />
      <stop style="stop-opacity:1;stop-color:#0359b4;" offset="0.00000111" id="stop4" />
      <stop style="stop-opacity:1;stop-color:#0359b4;" offset="0.12562916" id="stop5" />
      <stop style="stop-opacity:1;stop-color:#1d7186;" offset="0.561278" id="stop6" />
      <stop style="stop-opacity:1;stop-color:#1d7186;" offset="0.58432962" id="stop7" />
      <stop style="stop-opacity:1;stop-color:#368958;" offset="0.96099" id="stop8" />
      <stop style="stop-opacity:1;stop-color:#368958;" offset="1" id="stop9" />
    </linearGradient>
    <linearGradient x1="0" y1="0" x2="1" y2="0" gradientUnits="userSpaceOnUse" gradientTransform="matrix(149.00909,0,0,-149.00909,186.55321,600.41339)" spreadMethod="pad" id="linearGradient14">
      <stop style="stop-opacity:1;stop-color:#66b701;" offset="0" id="stop10" />
      <stop style="stop-opacity:1;stop-color:#66b701;" offset="0.0391064" id="stop11" />
      <stop style="stop-opacity:1;stop-color:#66b701;" offset="0.27309021" id="stop12" />
      <stop style="stop-opacity:1;stop-color:#0359b4;" offset="0.830168" id="stop13" />
      <stop style="stop-opacity:1;stop-color:#0359b4;" offset="1" id="stop14" />
    </linearGradient>
    <linearGradient x1="0" y1="0" x2="1" y2="0" gradientUnits="userSpaceOnUse" gradientTransform="matrix(157.07841,0,0,-157.07841,548.94287,578.99628)" spreadMethod="pad" id="linearGradient30">
      <stop style="stop-opacity:1;stop-color:#0359b4;" offset="0" id="stop24" />
      <stop style="stop-opacity:1;stop-color:#0359b4;" offset="0.00000111" id="stop25" />
      <stop style="stop-opacity:1;stop-color:#0359b4;" offset="0.12562916" id="stop26" />
      <stop style="stop-opacity:1;stop-color:#1d7186;" offset="0.561278" id="stop27" />
      <stop style="stop-opacity:1;stop-color:#1d7186;" offset="0.58432962" id="stop28" />
      <stop style="stop-opacity:1;stop-color:#368958;" offset="0.96099" id="stop29" />
      <stop style="stop-opacity:1;stop-color:#368958;" offset="1" id="stop30" />
    </linearGradient>
    <linearGradient x1="0" y1="0" x2="1" y2="0" gradientUnits="userSpaceOnUse" gradientTransform="matrix(149.00909,0,0,-149.00909,572.46808,575.36017)" spreadMethod="pad" id="linearGradient35">
      <stop style="stop-opacity:1;stop-color:#66b701;" offset="0" id="stop31" />
      <stop style="stop-opacity:1;stop-color:#66b701;" offset="0.0391064" id="stop32" />
      <stop style="stop-opacity:1;stop-color:#66b701;" offset="0.27309021" id="stop33" />
      <stop style="stop-opacity:1;stop-color:#0359b4;" offset="0.830168" id="stop34" />
      <stop style="stop-opacity:1;stop-color:#0359b4;" offset="1" id="stop35" />
    </linearGradient>
  </defs>
  <g id="layer-MC0">
    <path id="path1" d="M 59.049358,0.00145469 V -2.4126078 c -5.578125,-0.5859375 -6.796875,-1.5 -9.5625,-8.9414062 -5.695313,-14.800781 -11.226563,-29.777344 -16.757813,-44.707031 l -3,0.75 -18.09375,43.957031 C 8.5884203,-3.8540141 7.3696703,-3.2797953 1.7798266,-2.4126078 V 0.00145469 H 20.799358 V -2.4126078 c -6.515625,-0.6914063 -7.207031,-1.6757813 -5.355469,-6.8085938 1.089844,-3.3398434 2.238281,-6.6210934 3.679688,-10.4765624 h 18.492187 c 1.851563,4.839844 3.410156,9.035156 4.617188,12.3867187 1.148437,3.3984375 0.398437,4.1484375 -4.957032,4.8984375 V 0.00145469 Z M 36.350139,-23.506358 H 20.564983 c 2.589844,-6.796875 5.308594,-14.003906 8.074219,-20.976562 h 0.164062 z m 63.729491,-13.253906 c -3.164061,0.410156 -7.605467,0.925781 -11.976561,1.160156 -2.707031,-1.382812 -5.472656,-2.132812 -8.296875,-2.132812 h -0.117188 c -6.796875,0 -15.609375,4.3125 -15.609375,13.992187 0,5.589844 3.503907,9.621094 7.546875,11.296875 -1.324218,1.617188 -4.089843,3.8085939 -7.605468,5.0742189 -0.175782,0.9140625 0.164062,2.53125 0.972656,3.7382813 1.101562,1.8515625 3.234375,3.69140624 6.398437,4.61718749 -2.015625,1.60546871 -5.015625,3.79687501 -6.914062,5.57812501 -1.382813,1.21875 -2.25,2.8242187 -2.25,4.8398433 0.117187,4.792969 5.308594,10.324219 15.035156,10.324219 11.472656,0 21.726563,-8.191406 21.726563,-16.9453123 0,-8.4726563 -7.3125,-10.078125 -12.503907,-10.078125 -2.941406,0 -5.871093,0.1640625 -8.871093,0.1640625 -3.855469,0 -5.414063,-1.6640625 -5.414063,-3.28125 0,-1.0898438 1.089844,-2.4140622 2.191406,-3.1640622 1.382813,0.175781 2.871094,0.398437 4.488282,0.398437 7.546875,0 15.328125,-4.429687 15.328125,-13.417969 0,-3 -0.984375,-5.589843 -2.425782,-7.382812 l 4.839844,0.234375 c 1.441406,-0.75 3.234375,-3 3.86719,-4.324219 z m -21.140624,1.675781 c 4.78125,0 7.722657,4.78125 7.722657,11.179688 0,6.621093 -3.175782,9.902343 -6.855469,9.960937 -4.664063,0 -7.722656,-4.664062 -7.722656,-11.179687 0,-6.621094 3.339843,-9.960938 6.796875,-9.960938 z m 1.617188,36.3515627 c 3.515625,0 5.929687,0.1757812 8.179687,0.984375 2.472657,0.9140625 3.972657,3.046875 3.972657,5.9882812 0,5.1328121 -4.207032,9.1640621 -11.929688,9.1640621 -6.621094,0 -11.34375,-3.75 -11.34375,-8.1796871 0,-2.25 1.558594,-4.4414062 3.632813,-6.2226562 1.488281,-1.21875 3.457031,-1.734375 7.371093,-1.734375 z M 117.07475,-28.63917 v -9.386719 c -4.38281,1.792969 -8.41406,2.765625 -12.67969,3.457031 v 1.898438 c 4.78125,0.691406 5.23828,1.042968 5.23828,6.398437 v 17.4609377 c 0,5.53125 -0.75,6.046875 -5.92969,6.5625 v 2.24999999 h 20.44922 V -2.2485453 c -6.67968,-0.515625 -7.07812,-1.03125 -7.07812,-6.5625 V -23.846202 c 1.83984,-4.5 4.42969,-6.972656 6.62109,-6.972656 1.44141,0 2.42578,0.515625 3.75,1.722656 0.51563,0.457032 1.26563,0.632813 2.29688,0.234375 1.85156,-0.867187 3,-2.589843 3,-4.558593 0,-2.074219 -2.07422,-4.3125 -5.19141,-4.3125 -3.97266,0 -7.48828,4.488281 -10.3125,9.09375 z m 28.47949,-16.242188 c 2.64844,0 4.60547,-2.132812 4.60547,-4.546875 0,-2.707031 -1.95703,-4.734375 -4.48828,-4.734375 -2.54297,0 -4.72266,2.027344 -4.72266,4.734375 0,2.414063 2.17969,4.546875 4.60547,4.546875 z M 155.92533,0.00145469 V -2.2485453 c -5.47265,-0.6328125 -6.04687,-1.0898438 -6.04687,-6.9140625 V -37.908702 c -3.86719,1.5 -8.19141,2.472657 -12.79688,3.222657 v 2.015625 c 5.07422,0.867187 5.35547,1.277343 5.35547,6.574218 v 16.9335942 c 0,5.8828125 -0.63281,6.3984375 -5.98828,6.9140625 v 2.24999999 z m 0,0" style="fill:#66b701;fill-opacity:1;fill-rule:nonzero;stroke:none" aria-label="Agri" transform="matrix(1.3333333,0,0,1.3333333,156.16987,356.68947)" />
    <path style="font-weight:700;font-size:80px;font-family:'SF UI Display';fill:#0359b4" d="m 10.234375,-49.492187 q 7.34375,-7.851563 19.882812,-7.851563 12.539063,0 19.84375,7.851563 7.34375,7.851562 7.34375,21.328125 0,13.437499 -7.34375,21.289062 -7.34375,7.8515625 -19.84375,7.8515625 -12.539062,0 -19.882812,-7.8515625 -7.3046875,-7.851563 -7.3046875,-21.289062 0,-13.476563 7.3046875,-21.328125 z m 30.898437,7.226562 Q 37.03125,-47.5 30.117187,-47.5 q -6.914062,0 -11.054687,5.234375 -4.101562,5.234375 -4.101562,14.101563 0,8.828125 4.101562,14.062499 4.101562,5.195313 11.054687,5.195313 6.914063,0 11.015625,-5.195313 4.101563,-5.234374 4.101563,-14.062499 0,-8.867188 -4.101563,-14.101563 z m 21.640625,26.210938 h 11.367188 q 0.390625,3.437499 3.632812,5.585937 3.28125,2.109375 8.007813,2.109375 4.6875,0 7.617187,-1.992188 2.96875,-2.03125 2.96875,-5.15625 0,-2.734374 -2.1875,-4.414062 -2.1875,-1.679687 -7.304687,-2.8125 l -7.34375,-1.601562 q -15.507813,-3.320313 -15.507813,-15.742188 0,-7.734375 6.015625,-12.5 6.054688,-4.765625 15.546875,-4.765625 9.765625,0 15.585943,4.648438 5.82031,4.609375 5.97656,12.304687 H 96.09375 q -0.273438,-3.554687 -3.164063,-5.585937 -2.851562,-2.070313 -7.304687,-2.070313 -4.375,0 -7.070313,1.914063 -2.65625,1.914062 -2.65625,5.039062 0,2.578125 2.148438,4.179688 2.1875,1.601562 7.070312,2.734375 l 6.835938,1.445312 q 8.476565,1.796875 12.343755,5.625 3.86718,3.789063 3.86718,10.234375 0,8.203125 -6.17187,13.046875 -6.171878,4.8046875 -16.67969,4.8046875 -10.195313,0 -16.25,-4.53125 Q 63.046875,-8.125 62.773437,-16.054687 Z" id="text1" transform="matrix(1.3333333,0,0,1.3333333,365.8196,356.68947)" aria-label="OS" />
    <path id="path2" d="m 0,0 c 2.234,-8.064 4.468,-16.128 6.702,-24.191 l 4.915,28.404 c 1.148,4.927 3.342,11.859 7.766,19.297 4.013,6.747 8.511,11.64 12.021,14.916 C 27.565,33.594 22.804,26.452 19.277,16.979 17.061,11.028 15.856,5.565 15.191,1.021 21.211,3.544 29.309,7.936 36.766,15.638 56.255,35.769 55.689,62.32 55.404,68.426 49.43,67.193 43.006,65.036 36.638,61.404 6.363,44.136 0.898,6.942 0,0" style="fill:#66b701;fill-opacity:1;fill-rule:nonzero;stroke:none" transform="matrix(1.3333333,0,0,-1.3333333,311.3192,187.85813)" />
    <path id="path3" d="m 0,0 c 5.769,-1.057 17.732,-4.094 28.723,-13.915 6.4,-5.718 10.318,-11.811 12.639,-16.213 2.234,-8.064 4.468,-16.127 6.702,-24.191 l -5.298,-3 -4.596,15.83 c -0.528,0.842 -1.317,2.085 -2.298,3.574 -2.21,3.357 -4.69,7.123 -6.766,9.575 -1.96,2.315 -5.379,5.606 -11.234,8.425 2.542,-1.765 6.237,-4.775 9.575,-9.447 3.379,-4.729 5.032,-9.259 5.872,-12.255 -4.216,0.85 -7.638,2.248 -10.34,3.702 C 4.183,-27.798 0.593,-4.364 0,0" style="fill:#66b701;fill-opacity:1;fill-rule:nonzero;stroke:none" transform="matrix(1.3333333,0,0,-1.3333333,256.17027,147.68787)" />
    <path id="path9" d="m 304.276,635.043 c -10.412,-2.863 -22.98,-7.259 -36.51,-14.171 v 0 c -11.32,-5.782 -20.751,-12.018 -28.341,-17.744 v 0 c -29.104,-16.491 -54.926,-19.967 -64.084,-9.448 v 0 c -1.78,2.045 -3.499,5.269 -3.831,10.596 v 0 c -0.104,2.852 0.115,6.478 1.277,10.469 v 0 c 3.303,11.341 11.879,17.575 15.064,19.66 v 0 c -0.001,-10e-4 -11.773,-6.216 -18.766,-20.171 v 0 c -1.838,-3.669 -10.482,-20.916 -3.159,-32.425 v 0 c 10.612,-16.681 46.21,-7.868 48.989,-7.149 v 0 c 11.3,2.923 19.444,7.311 31.404,15.701 v 0 c 14.265,10.009 25.219,18.249 32.681,24.001 v 0 c 6.848,5.279 12.941,10.15 22.595,14.936 v 0 c 7.421,3.678 13.974,5.835 18.512,7.106 v 0 c -5.277,-0.453 -10.554,-0.908 -15.831,-1.361" transform="matrix(1.3333333,0,0,-1.3333333,0,1024)" style="fill:url(#linearGradient9);stroke:none" />
    <path id="path14" d="m 322.028,633.326 c -17.638,-5.415 -31.576,-20.511 -47.773,-33.837 v 0 c -4.989,-4.104 -12.954,-10.313 -23.617,-17.106 v 0 c -2.041,-1.282 -4.756,-2.895 -8.042,-4.596 v 0 c 0,0 -5.557,-2.877 -11.109,-5.006 v 0 c -7.184,-2.755 -23.466,-5.886 -44.934,-5.845 v 0 c 15.852,-0.883 32.834,-1.131 50.808,-0.445 v 0 c 7.752,0.298 15.287,0.752 22.597,1.339 v 0 c 14.357,3.169 49.666,13.154 68.553,44.553 v 0 c 2.706,4.5 4.838,9.045 6.51,13.532 v 0 c 0.508,1.857 1.148,5.257 -0.638,7.276 v 0 c -0.433,0.49 -1.575,1.538 -4.666,1.539 v 0 c -1.811,0 -4.29,-0.36 -7.689,-1.404" transform="matrix(1.3333333,0,0,-1.3333333,0,1024)" style="fill:url(#linearGradient14);stroke:none" />
    <path id="path15" d="M 59.04982,-0.00141563 V -2.4154781 c -5.578125,-0.5859375 -6.796875,-1.5 -9.5625,-8.9414059 -5.695312,-14.800782 -11.226562,-29.777344 -16.757812,-44.707032 l -3,0.75 -18.09375,43.957032 c -3.0468752,7.4999996 -4.2656252,8.0742184 -9.8554689,8.9414059 v 2.41406247 H 20.79982 V -2.4154781 c -6.515625,-0.6914063 -7.207031,-1.6757813 -5.355468,-6.8085938 1.089843,-3.3398441 2.238281,-6.6210941 3.679687,-10.4765621 h 18.492188 c 1.851562,4.839843 3.410156,9.035156 4.617187,12.3867184 1.148438,3.3984375 0.398438,4.1484375 -4.957031,4.8984375 v 2.41406247 z M 36.350602,-23.509228 H 20.565445 c 2.589844,-6.796875 5.308594,-14.003906 8.074219,-20.976563 h 0.164063 z m 0,0" style="fill:#ffffff;fill-opacity:1;fill-rule:nonzero;stroke:none" aria-label="A" transform="matrix(1.3333333,0,0,1.3333333,130.638,715.6972)" />
    <path id="path16" d="m 40.439964,-36.763134 c -3.164062,0.410156 -7.605469,0.925781 -11.976562,1.160156 -2.707032,-1.382813 -5.472657,-2.132813 -8.296875,-2.132813 h -0.117188 c -6.796875,0 -15.6093749,4.3125 -15.6093749,13.992188 0,5.589844 3.5039062,9.621094 7.5468749,11.296875 -1.324219,1.617187 -4.0898437,3.8085936 -7.6054687,5.0742186 -0.1757812,0.9140625 0.1640625,2.53125 0.9726563,3.7382813 1.1015625,1.8515625 3.234375,3.69140622 6.3984374,4.61718747 C 9.7368391,2.5884281 6.7368391,4.7798344 4.8384016,6.5610844 c -1.3828125,1.21875 -2.25,2.8242187 -2.25,4.8398436 0.1171875,4.792969 5.3085937,10.324219 15.0351564,10.324219 11.472656,0 21.726562,-8.191406 21.726562,-16.9453126 0,-8.4726563 -7.3125,-10.078125 -12.503906,-10.078125 -2.941406,0 -5.871094,0.1640625 -8.871094,0.1640625 -3.855468,0 -5.414062,-1.6640625 -5.414062,-3.28125 0,-1.0898438 1.089844,-2.4140629 2.191406,-3.1640629 1.382813,0.175782 2.871094,0.398438 4.488281,0.398438 7.546875,0 15.328125,-4.429688 15.328125,-13.417969 0,-3 -0.984375,-5.589844 -2.425781,-7.382812 l 4.839844,0.234375 c 1.441406,-0.75 3.234375,-3 3.867187,-4.324219 z m -21.140625,1.675781 c 4.78125,0 7.722656,4.78125 7.722656,11.179687 0,6.621094 -3.175781,9.902344 -6.855468,9.960938 -4.664063,0 -7.722657,-4.664063 -7.722657,-11.179688 0,-6.621093 3.339844,-9.960937 6.796875,-9.960937 z m 1.617188,36.3515624 c 3.515625,0 5.929687,0.1757812 8.179687,0.984375 2.472656,0.9140625 3.972656,3.046875 3.972656,5.9882812 0,5.1328124 -4.207031,9.1640624 -11.929687,9.1640624 -6.621094,0 -11.3437502,-3.75 -11.3437502,-8.1796874 0,-2.25 1.5585942,-4.4414062 3.6328122,-6.2226562 1.488282,-1.21875 3.457032,-1.734375 7.371094,-1.734375 z M 57.438011,-28.642041 v -9.386718 c -4.382813,1.792968 -8.414063,2.765625 -12.679688,3.457031 v 1.898437 c 4.78125,0.691407 5.238282,1.042969 5.238282,6.398438 v 17.4609374 c 0,5.53125 -0.75,6.046875 -5.929688,6.5625 v 2.24999997 H 64.516136 V -2.2514156 c -6.679688,-0.515625 -7.078125,-1.03125 -7.078125,-6.5625 V -23.849072 c 1.839844,-4.5 4.429687,-6.972656 6.621094,-6.972656 1.441406,0 2.425781,0.515625 3.75,1.722656 0.515625,0.457031 1.265625,0.632813 2.296875,0.234375 1.851562,-0.867187 3,-2.589844 3,-4.558594 0,-2.074218 -2.074219,-4.3125 -5.191407,-4.3125 -3.972656,0 -7.488281,4.488282 -10.3125,9.09375 z m 28.479492,-16.242187 c 2.648438,0 4.605469,-2.132813 4.605469,-4.546875 0,-2.707031 -1.957031,-4.734375 -4.488281,-4.734375 -2.542969,0 -4.722657,2.027344 -4.722657,4.734375 0,2.414062 2.179688,4.546875 4.605469,4.546875 z M 96.288597,-0.00141563 V -2.2514156 C 90.815941,-2.8842281 90.241722,-3.3412594 90.241722,-9.1654781 V -37.911572 c -3.867188,1.5 -8.191406,2.472656 -12.796875,3.222656 v 2.015625 c 5.074219,0.867188 5.355469,1.277344 5.355469,6.574219 v 16.9335939 c 0,5.8828125 -0.632813,6.3984375 -5.988282,6.9140625 v 2.24999997 z m 0,0" style="fill:#ffffff;fill-opacity:1;fill-rule:nonzero;stroke:none" aria-label="gri" transform="matrix(1.3333333,0,0,1.3333333,210.15427,715.6972)" />
    <path style="font-weight:700;font-size:80px;font-family:'SF UI Display';fill:#ffffff" d="m 10.234375,-49.492187 q 7.34375,-7.851563 19.882812,-7.851563 12.539063,0 19.84375,7.851563 7.34375,7.851562 7.34375,21.328125 0,13.437499 -7.34375,21.289062 -7.34375,7.8515625 -19.84375,7.8515625 -12.539062,0 -19.882812,-7.8515625 -7.3046875,-7.851563 -7.3046875,-21.289062 0,-13.476563 7.3046875,-21.328125 z m 30.898437,7.226562 Q 37.03125,-47.5 30.117187,-47.5 q -6.914062,0 -11.054687,5.234375 -4.101562,5.234375 -4.101562,14.101563 0,8.828125 4.101562,14.062499 4.101562,5.195313 11.054687,5.195313 6.914063,0 11.015625,-5.195313 4.101563,-5.234374 4.101563,-14.062499 0,-8.867188 -4.101563,-14.101563 z m 21.640625,26.210938 h 11.367188 q 0.390625,3.437499 3.632812,5.585937 3.28125,2.109375 8.007813,2.109375 4.6875,0 7.617187,-1.992188 2.96875,-2.03125 2.96875,-5.15625 0,-2.734374 -2.1875,-4.414062 -2.1875,-1.679687 -7.304687,-2.8125 l -7.34375,-1.601562 q -15.507813,-3.320313 -15.507813,-15.742188 0,-7.734375 6.015625,-12.5 6.054688,-4.765625 15.546875,-4.765625 9.765625,0 15.585943,4.648438 5.82031,4.609375 5.97656,12.304687 H 96.09375 q -0.273438,-3.554687 -3.164063,-5.585937 -2.851562,-2.070313 -7.304687,-2.070313 -4.375,0 -7.070313,1.914063 -2.65625,1.914062 -2.65625,5.039062 0,2.578125 2.148438,4.179688 2.1875,1.601562 7.070312,2.734375 l 6.835938,1.445312 q 8.476565,1.796875 12.343755,5.625 3.86718,3.789063 3.86718,10.234375 0,8.203125 -6.17187,13.046875 -6.171878,4.8046875 -16.67969,4.8046875 -10.195313,0 -16.25,-4.53125 Q 63.046875,-8.125 62.773437,-16.054687 Z" id="text16" transform="matrix(1.3333333,0,0,1.3333333,340.28773,715.6972)" aria-label="OS" />
    <path id="path17" d="m 0,0 c 2.234,-8.064 4.468,-16.128 6.702,-24.191 l 4.915,28.404 c 1.148,4.927 3.342,11.859 7.766,19.297 4.013,6.747 8.511,11.64 12.021,14.916 C 27.565,33.594 22.804,26.452 19.277,16.979 17.061,11.028 15.856,5.565 15.191,1.021 21.211,3.544 29.309,7.936 36.766,15.638 56.255,35.769 55.689,62.32 55.404,68.426 49.429,67.192 43.006,65.036 36.638,61.404 6.363,44.136 0.898,6.942 0,0" style="fill:#ffffff;fill-opacity:1;fill-rule:nonzero;stroke:none" transform="matrix(1.3333333,0,0,-1.3333333,277.7872,546.8652)" />
    <path id="path18" d="m 0,0 c 5.769,-1.057 17.732,-4.094 28.723,-13.915 6.4,-5.718 10.318,-11.811 12.639,-16.213 2.234,-8.063 4.468,-16.127 6.702,-24.191 l -5.298,-3 -4.596,15.83 c -0.528,0.842 -1.317,2.085 -2.298,3.574 -2.21,3.357 -4.69,7.123 -6.766,9.575 -1.96,2.315 -5.379,5.606 -11.234,8.425 2.542,-1.765 6.237,-4.775 9.575,-9.447 3.379,-4.729 5.032,-9.259 5.872,-12.255 -4.216,0.85 -7.638,2.248 -10.34,3.702 C 4.183,-27.798 0.593,-4.363 0,0" style="fill:#ffffff;fill-opacity:1;fill-rule:nonzero;stroke:none" transform="matrix(1.3333333,0,0,-1.3333333,222.63827,506.69507)" />
    <path id="path19" d="m 0,0 c -3.186,-2.084 -11.76,-8.318 -15.064,-19.66 -1.162,-3.99 -1.381,-7.616 -1.276,-10.468 0.332,-5.327 2.05,-8.551 3.829,-10.595 9.159,-10.52 34.981,-7.044 64.085,9.446 7.59,5.727 17.021,11.962 28.341,17.745 13.53,6.912 26.098,11.308 36.511,14.17 5.276,0.454 10.553,0.908 15.829,1.362 -4.537,-1.272 -11.091,-3.428 -18.51,-7.106 -9.655,-4.787 -15.748,-9.658 -22.596,-14.937 -7.462,-5.752 -18.416,-13.991 -32.681,-24 -11.96,-8.391 -20.104,-12.778 -31.404,-15.702 -2.779,-0.719 -38.377,-9.531 -48.989,7.149 -7.323,11.51 1.321,28.757 3.159,32.426 C -11.771,-6.211 0.006,0.004 0,0" style="fill:#ffffff;fill-opacity:1;fill-rule:nonzero;stroke:none" transform="matrix(1.3333333,0,0,-1.3333333,216.93613,537.13467)" />
    <path id="path20" d="m 0,0 c 0.508,1.857 1.148,5.257 -0.638,7.277 -0.687,0.776 -3.156,2.959 -12.355,0.135 -17.639,-5.416 -31.577,-20.511 -47.773,-33.838 -4.988,-4.104 -12.953,-10.313 -23.617,-17.106 -2.041,-1.281 -4.757,-2.894 -8.043,-4.596 0,0 -5.556,-2.877 -11.108,-5.006 -7.184,-2.755 -23.467,-5.887 -44.934,-5.845 15.851,-0.882 32.833,-1.131 50.808,-0.444 7.752,0.296 15.287,0.751 22.596,1.338 14.358,3.169 49.667,13.154 68.553,44.553 C -3.804,-9.032 -1.672,-4.487 0,0" style="fill:#ffffff;fill-opacity:1;fill-rule:nonzero;stroke:none" transform="matrix(1.3333333,0,0,-1.3333333,413.16307,548.45387)" />
    <path id="path21" d="m 59.049817,4.75e-4 v -2.4140625 c -5.578125,-0.5859375 -6.796875,-1.5 -9.5625,-8.9414065 -5.695312,-14.800781 -11.226562,-29.777344 -16.757812,-44.707031 l -3,0.75 -18.09375,43.957031 C 8.5888797,-3.8549938 7.3701297,-3.280775 1.7802859,-2.4135875 V 4.75e-4 H 20.799817 v -2.4140625 c -6.515625,-0.6914063 -7.207031,-1.6757813 -5.355469,-6.8085938 1.089844,-3.3398437 2.238282,-6.6210937 3.679688,-10.4765627 h 18.492187 c 1.851563,4.839844 3.410157,9.035156 4.617188,12.386719 1.148437,3.3984375 0.398437,4.1484375 -4.957031,4.8984375 V 4.75e-4 Z M 36.350598,-23.507338 H 20.565442 c 2.589844,-6.796875 5.308594,-14.003906 8.074219,-20.976562 h 0.164062 z m 0,0" style="fill:#66b701;fill-opacity:1;fill-rule:nonzero;stroke:none" aria-label="A" transform="matrix(1.3333333,0,0,1.3333333,659.17707,604.56187)" />
    <path id="path22" d="m 40.439961,-36.761244 c -3.164063,0.410156 -7.605469,0.925781 -11.976563,1.160156 C 25.756367,-36.9839 22.990742,-37.7339 20.166523,-37.7339 h -0.117187 c -6.796875,0 -15.6093751,4.3125 -15.6093751,13.992187 0,5.589844 3.5039063,9.621094 7.5468751,11.296875 -1.324219,1.617188 -4.0898438,3.8085942 -7.6054688,5.0742192 -0.1757813,0.9140625 0.1640625,2.53125 0.9726562,3.7382813 1.1015625,1.8515625 3.234375,3.69140625 6.3984376,4.6171875 -2.0156251,1.6054687 -5.0156251,3.796875 -6.9140626,5.578125 -1.3828125,1.21875 -2.25,2.8242187 -2.25,4.839844 0.1171875,4.792968 5.3085938,10.324218 15.0351566,10.324218 11.472656,0 21.726562,-8.191406 21.726562,-16.945312 0,-8.4726563 -7.3125,-10.078125 -12.503906,-10.078125 -2.941406,0 -5.871094,0.1640625 -8.871094,0.1640625 -3.855469,0 -5.414062,-1.6640625 -5.414062,-3.28125 0,-1.0898438 1.089843,-2.4140625 2.191406,-3.1640625 1.382812,0.175781 2.871094,0.398437 4.488281,0.398437 7.546875,0 15.328125,-4.429687 15.328125,-13.417968 0,-3 -0.984375,-5.589844 -2.425781,-7.382813 l 4.839844,0.234375 c 1.441406,-0.75 3.234375,-3 3.867187,-4.324219 z m -21.140625,1.675781 c 4.78125,0 7.722656,4.78125 7.722656,11.179688 0,6.621094 -3.175781,9.902344 -6.855469,9.960937 -4.664062,0 -7.722656,-4.664062 -7.722656,-11.179687 0,-6.621094 3.339844,-9.960938 6.796875,-9.960938 z M 20.916523,1.2661 c 3.515625,0 5.929688,0.1757812 8.179688,0.984375 2.472656,0.9140625 3.972656,3.046875 3.972656,5.9882812 0,5.1328128 -4.207031,9.1640628 -11.929687,9.1640628 -6.621094,0 -11.3437503,-3.75 -11.3437503,-8.1796878 0,-2.25 1.5585933,-4.4414062 3.6328123,-6.2226562 C 14.916523,1.781725 16.885273,1.2661 20.799336,1.2661 Z m 36.521485,-29.90625 v -9.386719 c -4.382813,1.792969 -8.414063,2.765625 -12.679688,3.457031 v 1.898438 c 4.78125,0.691406 5.238282,1.042969 5.238282,6.398437 v 17.460938 c 0,5.53125 -0.75,6.046875 -5.929688,6.5625 v 2.25 h 20.449219 v -2.25 c -6.679688,-0.515625 -7.078125,-1.03125 -7.078125,-6.5625 v -15.035156 c 1.839844,-4.5 4.429687,-6.972657 6.621094,-6.972657 1.441406,0 2.425781,0.515625 3.75,1.722657 0.515625,0.457031 1.265625,0.632812 2.296875,0.234375 1.851562,-0.867188 3,-2.589844 3,-4.558594 0,-2.074219 -2.074219,-4.3125 -5.191407,-4.3125 -3.972656,0 -7.488281,4.488281 -10.3125,9.09375 z M 85.9175,-44.882338 c 2.648438,0 4.605469,-2.132812 4.605469,-4.546875 0,-2.707031 -1.957031,-4.734375 -4.488281,-4.734375 -2.542969,0 -4.722657,2.027344 -4.722657,4.734375 0,2.414063 2.179688,4.546875 4.605469,4.546875 z M 96.288594,4.75e-4 v -2.25 C 90.815938,-2.8823375 90.241719,-3.3393688 90.241719,-9.1635875 V -37.909681 c -3.867188,1.5 -8.191406,2.472656 -12.796875,3.222656 v 2.015625 c 5.074219,0.867187 5.355469,1.277344 5.355469,6.574219 v 16.9335935 c 0,5.8828125 -0.632813,6.3984375 -5.988282,6.9140625 v 2.25 z m 0,0" style="fill:#66b701;fill-opacity:1;fill-rule:nonzero;stroke:none" aria-label="gri" transform="matrix(1.3333333,0,0,1.3333333,738.69333,604.56187)" />
    <path style="font-weight:700;font-size:80px;font-family:'SF UI Display';fill:#0359b4" d="m 10.234375,-49.492187 q 7.34375,-7.851563 19.882812,-7.851563 12.539063,0 19.84375,7.851563 7.34375,7.851562 7.34375,21.328125 0,13.437499 -7.34375,21.289062 -7.34375,7.8515625 -19.84375,7.8515625 -12.539062,0 -19.882812,-7.8515625 -7.3046875,-7.851563 -7.3046875,-21.289062 0,-13.476563 7.3046875,-21.328125 z m 30.898437,7.226562 Q 37.03125,-47.5 30.117187,-47.5 q -6.914062,0 -11.054687,5.234375 -4.101562,5.234375 -4.101562,14.101563 0,8.828125 4.101562,14.062499 4.101562,5.195313 11.054687,5.195313 6.914063,0 11.015625,-5.195313 4.101563,-5.234374 4.101563,-14.062499 0,-8.867188 -4.101563,-14.101563 z m 21.640625,26.210938 h 11.367188 q 0.390625,3.437499 3.632812,5.585937 3.28125,2.109375 8.007813,2.109375 4.6875,0 7.617187,-1.992188 2.96875,-2.03125 2.96875,-5.15625 0,-2.734374 -2.1875,-4.414062 -2.1875,-1.679687 -7.304687,-2.8125 l -7.34375,-1.601562 q -15.507813,-3.320313 -15.507813,-15.742188 0,-7.734375 6.015625,-12.5 6.054688,-4.765625 15.546875,-4.765625 9.765625,0 15.585943,4.648438 5.82031,4.609375 5.97656,12.304687 H 96.09375 q -0.273438,-3.554687 -3.164063,-5.585937 -2.851562,-2.070313 -7.304687,-2.070313 -4.375,0 -7.070313,1.914063 -2.65625,1.914062 -2.65625,5.039062 0,2.578125 2.148438,4.179688 2.1875,1.601562 7.070312,2.734375 l 6.835938,1.445312 q 8.476565,1.796875 12.343755,5.625 3.86718,3.789063 3.86718,10.234375 0,8.203125 -6.17187,13.046875 -6.171878,4.8046875 -16.67969,4.8046875 -10.195313,0 -16.25,-4.53125 Q 63.046875,-8.125 62.773437,-16.054687 Z" id="text22" transform="matrix(1.3333333,0,0,1.3333333,868.8268,604.56187)" aria-label="OS" />
    <path id="path23" d="m 0,0 c 2.234,-8.064 4.468,-16.128 6.702,-24.191 l 4.915,28.404 c 1.148,4.927 3.342,11.859 7.766,19.297 4.013,6.747 8.511,11.64 12.021,14.916 C 27.565,33.594 22.804,26.452 19.277,16.979 17.061,11.028 15.856,5.565 15.191,1.021 21.211,3.544 29.309,7.936 36.766,15.638 56.255,35.769 55.689,62.32 55.404,68.426 49.43,67.193 43.006,65.036 36.638,61.404 6.363,44.136 0.898,6.942 0,0" style="fill:#66b701;fill-opacity:1;fill-rule:nonzero;stroke:none" transform="matrix(1.3333333,0,0,-1.3333333,825.8724,221.2624)" />
    <path id="path24" d="m 0,0 c 5.769,-1.057 17.732,-4.094 28.723,-13.915 6.4,-5.718 10.318,-11.811 12.639,-16.213 2.234,-8.063 4.468,-16.127 6.702,-24.191 l -5.298,-3 -4.596,15.83 c -0.528,0.842 -1.317,2.085 -2.298,3.574 -2.21,3.357 -4.69,7.123 -6.766,9.575 -1.96,2.315 -5.379,5.606 -11.234,8.425 2.542,-1.765 6.237,-4.775 9.575,-9.447 3.379,-4.729 5.032,-9.259 5.872,-12.255 -4.216,0.85 -7.638,2.248 -10.34,3.702 C 4.183,-27.798 0.593,-4.363 0,0" style="fill:#66b701;fill-opacity:1;fill-rule:nonzero;stroke:none" transform="matrix(1.3333333,0,0,-1.3333333,770.72333,181.09227)" />
    <path id="path30" d="m 690.191,609.989 c -10.412,-2.863 -22.98,-7.258 -36.51,-14.17 v 0 c -11.32,-5.783 -20.751,-12.018 -28.34,-17.745 v 0 c -29.105,-16.49 -54.927,-19.966 -64.086,-9.446 v 0 c -1.779,2.044 -3.497,5.268 -3.829,10.596 v 0 c -0.106,2.851 0.114,6.477 1.276,10.468 v 0 c 3.304,11.341 11.878,17.575 15.064,19.659 v 0 c -10e-4,0 -11.773,-6.216 -18.766,-20.171 v 0 c -1.838,-3.668 -10.482,-20.916 -3.16,-32.425 v 0 c 10.612,-16.68 46.211,-7.867 48.99,-7.148 v 0 c 11.3,2.923 19.445,7.31 31.404,15.702 v 0 c 14.265,10.008 25.22,18.247 32.681,23.999 v 0 c 6.848,5.28 12.942,10.15 22.596,14.937 v 0 c 7.419,3.678 13.972,5.834 18.51,7.106 v 0 c -5.276,-0.454 -10.553,-0.908 -15.83,-1.362" transform="matrix(1.3333333,0,0,-1.3333333,0,1024)" style="fill:url(#linearGradient30);stroke:none" />
    <path id="path35" d="m 707.944,608.273 c -17.639,-5.415 -31.578,-20.511 -47.774,-33.837 v 0 c -4.988,-4.104 -12.953,-10.313 -23.617,-17.107 v 0 c -2.041,-1.281 -4.757,-2.894 -8.043,-4.595 v 0 c 0,0 -5.556,-2.877 -11.108,-5.007 v 0 c -7.184,-2.755 -23.467,-5.886 -44.934,-5.844 v 0 c 15.851,-0.883 32.833,-1.132 50.809,-0.445 v 0 c 7.751,0.297 15.286,0.752 22.595,1.338 v 0 c 14.358,3.169 49.667,13.155 68.553,44.554 v 0 c 2.707,4.499 4.84,9.045 6.511,13.532 v 0 c 0.508,1.856 1.148,5.256 -0.638,7.276 v 0 c -0.433,0.489 -1.576,1.538 -4.666,1.538 v 0 c -1.811,0 -4.29,-0.36 -7.688,-1.403" transform="matrix(1.3333333,0,0,-1.3333333,0,1024)" style="fill:url(#linearGradient35);stroke:none" />
    <path id="path36" d="m 0,0 c 2.234,-8.064 4.468,-16.128 6.702,-24.192 l 4.915,28.405 c 1.148,4.927 3.342,11.859 7.766,19.297 4.013,6.747 8.511,11.64 12.021,14.916 C 27.565,33.594 22.804,26.452 19.277,16.979 17.061,11.028 15.856,5.565 15.191,1.021 21.211,3.544 29.309,7.936 36.766,15.638 56.255,35.769 55.689,62.32 55.404,68.426 49.43,67.192 43.006,65.036 36.638,61.404 6.363,44.136 0.898,6.942 0,0" style="fill:#ffffff;fill-opacity:1;fill-rule:nonzero;stroke:none" transform="matrix(1.3333333,0,0,-1.3333333,1108.0851,213.8092)" />
    <path id="path37" d="m 0,0 c 5.769,-1.057 17.732,-4.094 28.723,-13.915 6.4,-5.718 10.318,-11.811 12.639,-16.213 2.234,-8.063 4.468,-16.127 6.702,-24.191 l -5.298,-3 -4.596,15.83 c -0.528,0.842 -1.317,2.085 -2.298,3.574 -2.21,3.357 -4.69,7.123 -6.766,9.575 -1.96,2.315 -5.379,5.606 -11.234,8.425 2.542,-1.765 6.237,-4.775 9.575,-9.447 3.379,-4.729 5.032,-9.259 5.872,-12.255 -4.216,0.85 -7.639,2.248 -10.34,3.702 C 4.183,-27.798 0.593,-4.363 0,0" style="fill:#ffffff;fill-opacity:1;fill-rule:nonzero;stroke:none" transform="matrix(1.3333333,0,0,-1.3333333,1052.9361,173.63907)" />
    <path id="path38" d="m 0,0 c -3.186,-2.084 -11.76,-8.318 -15.064,-19.66 -1.162,-3.99 -1.381,-7.616 -1.276,-10.468 0.332,-5.327 2.05,-8.551 3.829,-10.595 9.159,-10.52 34.981,-7.044 64.085,9.446 7.59,5.727 17.021,11.962 28.341,17.745 13.53,6.912 26.098,11.308 36.511,14.17 5.276,0.454 10.553,0.908 15.829,1.362 -4.537,-1.272 -11.091,-3.428 -18.51,-7.106 -9.655,-4.787 -15.748,-9.657 -22.596,-14.937 -7.462,-5.752 -18.416,-13.991 -32.681,-24 -11.96,-8.391 -20.104,-12.778 -31.404,-15.702 -2.779,-0.719 -38.377,-9.531 -48.989,7.149 -7.323,11.51 1.321,28.757 3.159,32.426 C -11.771,-6.211 0.006,0.004 0,0" style="fill:#ffffff;fill-opacity:1;fill-rule:nonzero;stroke:none" transform="matrix(1.3333333,0,0,-1.3333333,1047.234,204.0788)" />
    <path id="path39" d="m 0,0 c 0.508,1.857 1.148,5.257 -0.638,7.277 -0.687,0.776 -3.156,2.959 -12.355,0.135 -17.639,-5.415 -31.577,-20.511 -47.773,-33.838 -4.988,-4.104 -12.953,-10.313 -23.617,-17.106 -2.041,-1.281 -4.757,-2.894 -8.043,-4.596 0,0 -5.556,-2.877 -11.108,-5.006 -7.184,-2.755 -23.467,-5.887 -44.934,-5.845 15.851,-0.882 32.833,-1.131 50.808,-0.444 7.752,0.296 15.287,0.751 22.596,1.338 14.358,3.169 49.667,13.154 68.553,44.553 C -3.804,-9.032 -1.672,-4.487 0,0" style="fill:#ffffff;fill-opacity:1;fill-rule:nonzero;stroke:none" transform="matrix(1.3333333,0,0,-1.3333333,1243.4611,215.398)" />
    <path id="path40" d="M 59.051242,-4.90625e-4 V -2.4145531 c -5.578125,-0.5859375 -6.796875,-1.5 -9.5625,-8.9414059 C 43.79343,-26.156741 38.26218,-41.133303 32.73093,-56.062991 l -3,0.75 -18.09375,43.957032 C 8.5903047,-3.8559594 7.3715547,-3.2817406 1.7817109,-2.4145531 V -4.90625e-4 H 20.801242 V -2.4145531 c -6.515625,-0.6914063 -7.207031,-1.6757813 -5.355469,-6.8085938 1.089844,-3.3398441 2.238282,-6.6210941 3.679688,-10.4765621 h 18.492187 c 1.851563,4.839843 3.410157,9.035156 4.617188,12.3867184 1.148437,3.3984375 0.398437,4.1484375 -4.957031,4.8984375 V -4.90625e-4 Z M 36.352023,-23.508303 H 20.566867 c 2.589844,-6.796875 5.308594,-14.003906 8.074219,-20.976563 h 0.164062 z m 0,0" style="fill:#ffffff;fill-opacity:1;fill-rule:nonzero;stroke:none" aria-label="A" transform="matrix(1.3333333,0,0,1.3333333,648.36267,760.13347)" />
    <path id="path41" d="m 40.441386,-36.762209 c -3.164063,0.410156 -7.605469,0.925781 -11.976563,1.160156 -2.707031,-1.382813 -5.472656,-2.132813 -8.296875,-2.132813 h -0.117187 c -6.796875,0 -15.6093751,4.3125 -15.6093751,13.992188 0,5.589844 3.5039063,9.621094 7.5468751,11.296875 -1.324219,1.617187 -4.0898438,3.8085936 -7.6054688,5.0742186 -0.1757813,0.9140625 0.1640625,2.53125 0.9726562,3.7382813 1.1015625,1.8515625 3.234375,3.69140623 6.3984376,4.61718748 C 9.7382609,2.5893531 6.7382609,4.7807594 4.8398234,6.5620094 c -1.3828125,1.21875 -2.25,2.8242187 -2.25,4.8398436 0.1171875,4.792969 5.3085938,10.324219 15.0351566,10.324219 11.472656,0 21.726562,-8.191406 21.726562,-16.9453126 0,-8.4726563 -7.3125,-10.078125 -12.503906,-10.078125 -2.941406,0 -5.871094,0.1640625 -8.871094,0.1640625 -3.855469,0 -5.414062,-1.6640625 -5.414062,-3.28125 0,-1.0898438 1.089843,-2.4140629 2.191406,-3.1640629 1.382812,0.175782 2.871094,0.398438 4.488281,0.398438 7.546875,0 15.328125,-4.429688 15.328125,-13.417969 0,-3 -0.984375,-5.589844 -2.425781,-7.382812 l 4.839844,0.234375 c 1.441406,-0.75 3.234375,-3 3.867187,-4.324219 z m -21.140625,1.675781 c 4.78125,0 7.722656,4.78125 7.722656,11.179687 0,6.621094 -3.175781,9.902344 -6.855469,9.960938 -4.664062,0 -7.722656,-4.664063 -7.722656,-11.179688 0,-6.621093 3.339844,-9.960937 6.796875,-9.960937 z m 1.617187,36.3515624 c 3.515625,0 5.929688,0.1757812 8.179688,0.984375 2.472656,0.9140625 3.972656,3.046875 3.972656,5.9882812 0,5.1328124 -4.207031,9.1640624 -11.929687,9.1640624 -6.621094,0 -11.3437503,-3.75 -11.3437503,-8.1796874 0,-2.25 1.5585933,-4.4414062 3.6328123,-6.2226562 1.488281,-1.21875 3.457031,-1.734375 7.371094,-1.734375 z M 57.436503,-28.641116 v -9.386718 c -4.382812,1.792968 -8.414062,2.765625 -12.679687,3.457031 v 1.898437 c 4.78125,0.691407 5.238281,1.042969 5.238281,6.398438 v 17.4609374 c 0,5.53125 -0.75,6.046875 -5.929688,6.5625 V -4.90625e-4 H 64.514628 V -2.2504906 c -6.679687,-0.515625 -7.078125,-1.03125 -7.078125,-6.5625 V -23.848147 c 1.839844,-4.5 4.429688,-6.972656 6.621094,-6.972656 1.441406,0 2.425781,0.515625 3.75,1.722656 0.515625,0.457031 1.265625,0.632813 2.296875,0.234375 1.851562,-0.867187 3,-2.589844 3,-4.558594 0,-2.074218 -2.074219,-4.3125 -5.191406,-4.3125 -3.972657,0 -7.488282,4.488282 -10.3125,9.09375 z m 28.479492,-16.242187 c 2.648438,0 4.605469,-2.132813 4.605469,-4.546875 0,-2.707031 -1.957031,-4.734375 -4.488281,-4.734375 -2.542969,0 -4.722656,2.027344 -4.722656,4.734375 0,2.414062 2.179687,4.546875 4.605468,4.546875 z M 96.287089,-4.90625e-4 V -2.2504906 C 90.814433,-2.8833031 90.240214,-3.3403344 90.240214,-9.1645531 V -37.910647 c -3.867187,1.5 -8.191406,2.472656 -12.796875,3.222656 v 2.015625 c 5.074219,0.867188 5.355469,1.277344 5.355469,6.574219 v 16.9335939 c 0,5.8828125 -0.632813,6.3984375 -5.988281,6.9140625 v 2.249999975 z m 0,0" style="fill:#ffffff;fill-opacity:1;fill-rule:nonzero;stroke:none" aria-label="gri" transform="matrix(1.3333333,0,0,1.3333333,727.87893,760.13347)" />
    <path style="font-weight:700;font-size:80px;font-family:'SF UI Display';fill:#ffffff" d="m 10.234375,-49.492187 q 7.34375,-7.851563 19.882812,-7.851563 12.539063,0 19.84375,7.851563 7.34375,7.851562 7.34375,21.328125 0,13.437499 -7.34375,21.289062 -7.34375,7.8515625 -19.84375,7.8515625 -12.539062,0 -19.882812,-7.8515625 -7.3046875,-7.851563 -7.3046875,-21.289062 0,-13.476563 7.3046875,-21.328125 z m 30.898437,7.226562 Q 37.03125,-47.5 30.117187,-47.5 q -6.914062,0 -11.054687,5.234375 -4.101562,5.234375 -4.101562,14.101563 0,8.828125 4.101562,14.062499 4.101562,5.195313 11.054687,5.195313 6.914063,0 11.015625,-5.195313 4.101563,-5.234374 4.101563,-14.062499 0,-8.867188 -4.101563,-14.101563 z m 21.640625,26.210938 h 11.367188 q 0.390625,3.437499 3.632812,5.585937 3.28125,2.109375 8.007813,2.109375 4.6875,0 7.617187,-1.992188 2.96875,-2.03125 2.96875,-5.15625 0,-2.734374 -2.1875,-4.414062 -2.1875,-1.679687 -7.304687,-2.8125 l -7.34375,-1.601562 q -15.507813,-3.320313 -15.507813,-15.742188 0,-7.734375 6.015625,-12.5 6.054688,-4.765625 15.546875,-4.765625 9.765625,0 15.585943,4.648438 5.82031,4.609375 5.97656,12.304687 H 96.09375 q -0.273438,-3.554687 -3.164063,-5.585937 -2.851562,-2.070313 -7.304687,-2.070313 -4.375,0 -7.070313,1.914063 -2.65625,1.914062 -2.65625,5.039062 0,2.578125 2.148438,4.179688 2.1875,1.601562 7.070312,2.734375 l 6.835938,1.445312 q 8.476565,1.796875 12.343755,5.625 3.86718,3.789063 3.86718,10.234375 0,8.203125 -6.17187,13.046875 -6.171878,4.8046875 -16.67969,4.8046875 -10.195313,0 -16.25,-4.53125 Q 63.046875,-8.125 62.773437,-16.054687 Z" id="text41" transform="matrix(1.3333333,0,0,1.3333333,858.0124,760.13347)" aria-label="OS" />
  </g>
  <g id="layer-MC1" />
  <g id="layer-MC2" />
  <g id="layer-MC3" />
</svg>