<?xml version='1.0' encoding='utf-8'?>
<svg xmlns="http://www.w3.org/2000/svg" version="1.1" id="svg1" width="1821.3333" height="1024" viewBox="0 0 1821.3333 1024">
  <defs id="defs1">
    <linearGradient x1="0" y1="0" x2="1" y2="0" gradientUnits="userSpaceOnUse" gradientTransform="matrix(157.07841,0,0,-157.07841,163.02798,604.0495)" spreadMethod="pad" id="linearGradient9">
      <stop style="stop-opacity:1;stop-color:#0359b4;" offset="0" id="stop3" />
      <stop style="stop-opacity:1;stop-color:#0359b4;" offset="0.00000111" id="stop4" />
      <stop style="stop-opacity:1;stop-color:#0359b4;" offset="0.12562916" id="stop5" />
      <stop style="stop-opacity:1;stop-color:#1d7186;" offset="0.561278" id="stop6" />
      <stop style="stop-opacity:1;stop-color:#1d7186;" offset="0.58432962" id="stop7" />
      <stop style="stop-opacity:1;stop-color:#368958;" offset="0.96099" id="stop8" />
      <stop style="stop-opacity:1;stop-color:#368958;" offset="1" id="stop9" />
    </linearGradient>
    <linearGradient x1="0" y1="0" x2="1" y2="0" gradientUnits="userSpaceOnUse" gradientTransform="matrix(149.00909,0,0,-149.00909,186.55321,600.41339)" spreadMethod="pad" id="linearGradient14">
      <stop style="stop-opacity:1;stop-color:#66b701;" offset="0" id="stop10" />
      <stop style="stop-opacity:1;stop-color:#66b701;" offset="0.0391064" id="stop11" />
      <stop style="stop-opacity:1;stop-color:#66b701;" offset="0.27309021" id="stop12" />
      <stop style="stop-opacity:1;stop-color:#0359b4;" offset="0.830168" id="stop13" />
      <stop style="stop-opacity:1;stop-color:#0359b4;" offset="1" id="stop14" />
    </linearGradient>
    <linearGradient x1="0" y1="0" x2="1" y2="0" gradientUnits="userSpaceOnUse" gradientTransform="matrix(157.07841,0,0,-157.07841,617.85706,292.51758)" spreadMethod="pad" id="linearGradient23">
      <stop style="stop-opacity:1;stop-color:#0359b4;" offset="0" id="stop17" />
      <stop style="stop-opacity:1;stop-color:#0359b4;" offset="0.00000111" id="stop18" />
      <stop style="stop-opacity:1;stop-color:#0359b4;" offset="0.12562916" id="stop19" />
      <stop style="stop-opacity:1;stop-color:#1d7186;" offset="0.561278" id="stop20" />
      <stop style="stop-opacity:1;stop-color:#1d7186;" offset="0.58432962" id="stop21" />
      <stop style="stop-opacity:1;stop-color:#368958;" offset="0.96099" id="stop22" />
      <stop style="stop-opacity:1;stop-color:#368958;" offset="1" id="stop23" />
    </linearGradient>
    <linearGradient x1="0" y1="0" x2="1" y2="0" gradientUnits="userSpaceOnUse" gradientTransform="matrix(149.00909,0,0,-149.00909,641.38226,288.88147)" spreadMethod="pad" id="linearGradient28">
      <stop style="stop-opacity:1;stop-color:#66b701;" offset="0" id="stop24" />
      <stop style="stop-opacity:1;stop-color:#66b701;" offset="0.0391064" id="stop25" />
      <stop style="stop-opacity:1;stop-color:#66b701;" offset="0.27309021" id="stop26" />
      <stop style="stop-opacity:1;stop-color:#0359b4;" offset="0.830168" id="stop27" />
      <stop style="stop-opacity:1;stop-color:#0359b4;" offset="1" id="stop28" />
    </linearGradient>
    <linearGradient x1="0" y1="0" x2="1" y2="0" gradientUnits="userSpaceOnUse" gradientTransform="matrix(157.07841,0,0,-157.07841,613.82977,588.69635)" spreadMethod="pad" id="linearGradient42">
      <stop style="stop-opacity:1;stop-color:#0359b4;" offset="0" id="stop36" />
      <stop style="stop-opacity:1;stop-color:#0359b4;" offset="0.00000111" id="stop37" />
      <stop style="stop-opacity:1;stop-color:#0359b4;" offset="0.12562916" id="stop38" />
      <stop style="stop-opacity:1;stop-color:#1d7186;" offset="0.561278" id="stop39" />
      <stop style="stop-opacity:1;stop-color:#1d7186;" offset="0.58432962" id="stop40" />
      <stop style="stop-opacity:1;stop-color:#368958;" offset="0.96099" id="stop41" />
      <stop style="stop-opacity:1;stop-color:#368958;" offset="1" id="stop42" />
    </linearGradient>
    <linearGradient x1="0" y1="0" x2="1" y2="0" gradientUnits="userSpaceOnUse" gradientTransform="matrix(149.00909,0,0,-149.00909,637.35504,585.06024)" spreadMethod="pad" id="linearGradient47">
      <stop style="stop-opacity:1;stop-color:#66b701;" offset="0" id="stop43" />
      <stop style="stop-opacity:1;stop-color:#66b701;" offset="0.0391064" id="stop44" />
      <stop style="stop-opacity:1;stop-color:#66b701;" offset="0.27309021" id="stop45" />
      <stop style="stop-opacity:1;stop-color:#0359b4;" offset="0.830168" id="stop46" />
      <stop style="stop-opacity:1;stop-color:#0359b4;" offset="1" id="stop47" />
    </linearGradient>
  </defs>
  <g id="layer-MC0">
    <path id="path1" d="M 61.416545,-25.521983 H 38.658733 v 2.414063 c 8.753906,0.691406 9.28125,1.277343 9.28125,7.5 v 6.9140622 c 0,3.2226562 -1.042969,4.4296875 -2.882813,5.4140625 -1.851562,0.9140625 -4.617187,1.5 -7.441406,1.5 -16.875,0 -24.246094,-14.1796877 -24.246094,-26.3320317 0,-15.386718 9.785157,-24.832031 22.980469,-24.832031 8.648438,0 15.445313,3.105469 17.519531,13.59375 l 2.53125,-0.574219 c -0.691406,-5.988281 -1.089843,-10.664062 -1.324218,-13.59375 -2.941407,-0.644531 -9.902344,-2.542968 -17.402344,-2.542968 -17.507813,0 -33.8789064,9.679687 -33.8789064,29.039062 0,16.769531 13.1367184,28.3476564 32.7304684,28.3476564 7.207032,0 14.578125,-2.01562496 20.050782,-3.28125 -0.515625,-2.1328125 -0.574219,-4.8398437 -0.574219,-7.78125 v -7.0312504 c 0,-5.121093 0.28125,-5.53125 5.414062,-6.339843 z m 17.402344,-3.117187 v -9.386719 c -4.382812,1.792969 -8.414062,2.765625 -12.679687,3.457031 v 1.898438 c 4.78125,0.691406 5.238281,1.042968 5.238281,6.398437 v 17.4609377 c 0,5.53125 -0.75,6.046875 -5.929688,6.5625 V 0.00145469 H 85.897014 V -2.2485453 c -6.679687,-0.515625 -7.078125,-1.03125 -7.078125,-6.5625 V -23.846202 c 1.839844,-4.5 4.429688,-6.972656 6.621094,-6.972656 1.441406,0 2.425781,0.515625 3.75,1.722656 0.515625,0.457032 1.265625,0.632813 2.296875,0.234375 1.851562,-0.867187 3,-2.589843 3,-4.558593 0,-2.074219 -2.074219,-4.3125 -5.191406,-4.3125 -3.972657,0 -7.488282,4.488281 -10.3125,9.09375 z m 48.216801,19.3124997 c -3.10547,2.8710937 -6.38672,4.1953125 -9.90235,4.1953125 -5.9414,0 -12.32812,-4.6054688 -12.5039,-15.4921872 9.90234,-0.351563 20.625,-1.207032 22.18359,-1.441407 1.54687,-0.351562 2.01562,-1.089843 2.01562,-2.707031 0,-6.679687 -5.82421,-12.960937 -13.13671,-12.960937 h -0.0586 c -4.55859,0 -9.22265,2.414062 -12.90234,6.445312 -3.457033,3.75 -5.484377,8.824219 -5.484377,14.402344 0,9.3984374 6.222657,17.87109369 16.769527,17.87109369 2.76563,0 8.92969,-1.5 14.46094,-8.47265629 z M 113.67631,-34.568858 c 4.48828,0 7.25391,4.089844 7.25391,8.53125 0,1.089844 -0.51563,1.546875 -2.01563,1.605469 -4.78125,0.175781 -9.32812,0.175781 -13.88672,0.175781 1.20703,-7.03125 4.89844,-10.3125 8.58985,-10.3125 z m 50.58691,25.2421877 c -3.10546,2.8710937 -6.38671,4.1953125 -9.90234,4.1953125 -5.94141,0 -12.32812,-4.6054688 -12.50391,-15.4921872 9.90235,-0.351563 20.625,-1.207032 22.1836,-1.441407 1.54687,-0.351562 2.01562,-1.089843 2.01562,-2.707031 0,-6.679687 -5.82422,-12.960937 -13.13672,-12.960937 h -0.0586 c -4.55859,0 -9.22266,2.414062 -12.90234,6.445312 -3.45703,3.75 -5.48438,8.824219 -5.48438,14.402344 0,9.3984374 6.22266,17.87109369 16.76953,17.87109369 2.76563,0 8.92969,-1.5 14.46094,-8.47265629 z M 150.90385,-34.568858 c 4.48828,0 7.25391,4.089844 7.25391,8.53125 0,1.089844 -0.51563,1.546875 -2.01563,1.605469 -4.78125,0.175781 -9.32812,0.175781 -13.88672,0.175781 1.20703,-7.03125 4.89844,-10.3125 8.58985,-10.3125 z M 213.7017,0.00145469 V -2.2485453 c -4.95703,-0.6328125 -5.47265,-0.8554688 -5.47265,-6.6210938 V -24.596202 c 0,-8.355468 -4.32422,-13.136718 -11.1211,-13.136718 -2.53125,0 -4.66406,0.914062 -7.08984,2.472656 -2.19141,1.441406 -4.03125,2.765625 -5.75391,4.03125 v -6.796875 c -3.98437,1.617187 -8.41406,2.707031 -12.5039,3.339844 v 2.132812 c 4.48828,0.808594 5.0625,1.160156 5.0625,6.632813 v 16.9335934 c 0,5.6484375 -0.45704,6.046875 -6.16407,6.7382813 v 2.24999999 h 19.01953 V -2.2485453 c -4.95703,-0.515625 -5.41406,-0.8554688 -5.41406,-6.6210938 V -28.346202 c 2.58985,-2.132812 5.75391,-4.148437 8.98828,-4.148437 5.23828,0 7.60547,3.515625 7.60547,9.386719 v 13.7226559 c 0,5.9296875 -0.58594,6.6210938 -5.47265,7.1367188 v 2.24999999 z m 39.34863,-3.45703129 -0.85546,-2.25 c -0.92579,0.5273438 -2.07422,0.9257813 -3.0586,0.9257813 -1.55859,0 -3.05859,-1.265625 -3.05859,-5.015625 V -24.947764 c 0,-4.488281 -0.91406,-8.003906 -4.08985,-10.652344 -1.95703,-1.5 -4.42968,-2.132812 -7.13671,-2.132812 -4.78125,0.914062 -10.60547,4.148437 -13.07813,5.929687 -1.67578,1.148438 -2.76562,2.191406 -2.76562,3.457031 0,2.015625 2.23828,3.75 3.91406,3.75 1.32422,0 2.25,-0.585937 2.76562,-2.074218 0.75,-2.707032 1.5,-4.617188 2.58985,-5.707032 0.86718,-0.925781 2.13281,-1.5 3.63281,-1.5 4.08984,0 6.85547,3.222657 6.85547,9.28125 v 1.488282 c -1.83985,1.558593 -7.78125,3.75 -13.25391,5.484375 -4.66406,1.488281 -6.97265,4.03125 -6.97265,8.2382809 0,5.296875 4.20703,10.37109379 10.60546,10.37109379 2.42579,0 6.45704,-3.05859379 9.91407,-5.24999999 0.39843,1.3242187 0.91406,2.484375 2.07422,3.57421874 0.91406,0.92578125 2.76562,1.67578125 4.37109,1.67578125 z m -14.28515,-3.5742187 c -1.5,1.5 -4.26563,2.765625 -6.28125,2.765625 -2.53125,0 -5.8711,-1.9570313 -5.8711,-6.3984377 0,-3.105469 1.83985,-4.78125 5.17969,-6.222656 1.79297,-0.796875 5.25,-2.414063 6.97266,-3.28125 z m 0,0" style="fill:#66b701;fill-opacity:1;fill-rule:nonzero;stroke:none" aria-label="Greena" transform="matrix(1.3333333,0,0,1.3333333,156.16987,356.68947)" />
    <path id="path2" d="m 0,0 c 2.234,-8.064 4.468,-16.128 6.702,-24.191 l 4.915,28.404 c 1.148,4.927 3.342,11.859 7.766,19.297 4.013,6.747 8.511,11.64 12.021,14.916 C 27.565,33.594 22.804,26.452 19.277,16.979 17.061,11.028 15.856,5.565 15.191,1.021 21.211,3.544 29.309,7.936 36.766,15.638 56.255,35.769 55.689,62.32 55.404,68.426 49.43,67.193 43.006,65.036 36.638,61.404 6.363,44.136 0.898,6.942 0,0" style="fill:#66b701;fill-opacity:1;fill-rule:nonzero;stroke:none" transform="matrix(1.3333333,0,0,-1.3333333,311.3192,187.85813)" />
    <path id="path3" d="m 0,0 c 5.769,-1.057 17.732,-4.094 28.723,-13.915 6.4,-5.718 10.318,-11.811 12.639,-16.213 2.234,-8.064 4.468,-16.127 6.702,-24.191 l -5.298,-3 -4.596,15.83 c -0.528,0.842 -1.317,2.085 -2.298,3.574 -2.21,3.357 -4.69,7.123 -6.766,9.575 -1.96,2.315 -5.379,5.606 -11.234,8.425 2.542,-1.765 6.237,-4.775 9.575,-9.447 3.379,-4.729 5.032,-9.259 5.872,-12.255 -4.216,0.85 -7.638,2.248 -10.34,3.702 C 4.183,-27.798 0.593,-4.364 0,0" style="fill:#66b701;fill-opacity:1;fill-rule:nonzero;stroke:none" transform="matrix(1.3333333,0,0,-1.3333333,256.17027,147.68787)" />
    <path id="path9" d="m 304.276,635.043 c -10.412,-2.863 -22.98,-7.259 -36.51,-14.171 v 0 c -11.32,-5.782 -20.751,-12.018 -28.341,-17.744 v 0 c -29.104,-16.491 -54.926,-19.967 -64.084,-9.448 v 0 c -1.78,2.045 -3.499,5.269 -3.831,10.596 v 0 c -0.104,2.852 0.115,6.478 1.277,10.469 v 0 c 3.303,11.341 11.879,17.575 15.064,19.66 v 0 c -0.001,-10e-4 -11.773,-6.216 -18.766,-20.171 v 0 c -1.838,-3.669 -10.482,-20.916 -3.159,-32.425 v 0 c 10.612,-16.681 46.21,-7.868 48.989,-7.149 v 0 c 11.3,2.923 19.444,7.311 31.404,15.701 v 0 c 14.265,10.009 25.219,18.249 32.681,24.001 v 0 c 6.848,5.279 12.941,10.15 22.595,14.936 v 0 c 7.421,3.678 13.974,5.835 18.512,7.106 v 0 c -5.277,-0.453 -10.554,-0.908 -15.831,-1.361" transform="matrix(1.3333333,0,0,-1.3333333,0,1024)" style="fill:url(#linearGradient9);stroke:none" />
    <path id="path14" d="m 322.028,633.326 c -17.638,-5.415 -31.576,-20.511 -47.773,-33.837 v 0 c -4.989,-4.104 -12.954,-10.313 -23.617,-17.106 v 0 c -2.041,-1.282 -4.756,-2.895 -8.042,-4.596 v 0 c 0,0 -5.557,-2.877 -11.109,-5.006 v 0 c -7.184,-2.755 -23.466,-5.886 -44.934,-5.845 v 0 c 15.852,-0.883 32.834,-1.131 50.808,-0.445 v 0 c 7.752,0.298 15.287,0.752 22.597,1.339 v 0 c 14.357,3.169 49.666,13.154 68.553,44.553 v 0 c 2.706,4.5 4.838,9.045 6.51,13.532 v 0 c 0.508,1.857 1.148,5.257 -0.638,7.276 v 0 c -0.433,0.49 -1.575,1.538 -4.666,1.539 v 0 c -1.811,0 -4.29,-0.36 -7.689,-1.404" transform="matrix(1.3333333,0,0,-1.3333333,0,1024)" style="fill:url(#linearGradient14);stroke:none" />
    <path id="path15" d="M 61.417459,-25.523941 H 38.659647 v 2.414063 c 8.753906,0.691406 9.28125,1.277344 9.28125,7.5 v 6.9140624 c 0,3.2226562 -1.042969,4.4296875 -2.882813,5.4140625 -1.851562,0.9140625 -4.617187,1.5 -7.441406,1.5 -16.875,0 -24.246094,-14.1796879 -24.246094,-26.3320309 0,-15.386719 9.785157,-24.832032 22.980469,-24.832032 8.648438,0 15.445313,3.105469 17.519531,13.59375 l 2.53125,-0.574218 c -0.691406,-5.988282 -1.089843,-10.664063 -1.324218,-13.59375 -2.941407,-0.644532 -9.902344,-2.542969 -17.402344,-2.542969 -17.507813,0 -33.8789064,9.679687 -33.8789064,29.039062 0,16.769532 13.1367184,28.3476566 32.7304684,28.3476566 7.207032,0 14.578125,-2.01562497 20.050782,-3.28125 -0.515625,-2.1328125 -0.574219,-4.8398437 -0.574219,-7.78125 v -7.0312496 c 0,-5.121094 0.28125,-5.53125 5.414062,-6.339844 z m 17.399414,-3.117187 v -9.386719 c -4.382812,1.792969 -8.414062,2.765625 -12.679687,3.457031 v 1.898438 c 4.78125,0.691406 5.238281,1.042969 5.238281,6.398437 v 17.4609379 c 0,5.53125 -0.75,6.046875 -5.929687,6.5625 V -5.03125e-4 H 85.894998 V -2.2505031 c -6.679687,-0.515625 -7.078125,-1.03125 -7.078125,-6.5625 V -23.848159 c 1.839844,-4.5 4.429688,-6.972657 6.621094,-6.972657 1.441406,0 2.425781,0.515625 3.75,1.722657 0.515625,0.457031 1.265625,0.632812 2.296875,0.234375 1.851563,-0.867188 3,-2.589844 3,-4.558594 0,-2.074219 -2.074219,-4.3125 -5.191406,-4.3125 -3.972656,0 -7.488281,4.488281 -10.3125,9.09375 z m 48.216797,19.3124999 c -3.10547,2.8710937 -6.38672,4.1953125 -9.90234,4.1953125 -5.94141,0 -12.32813,-4.6054688 -12.50391,-15.4921874 9.90234,-0.351563 20.625,-1.207031 22.18359,-1.441406 1.54688,-0.351563 2.01563,-1.089844 2.01563,-2.707032 0,-6.679687 -5.82422,-12.960937 -13.13672,-12.960937 h -0.0586 c -4.5586,0 -9.22266,2.414062 -12.90235,6.445312 -3.457028,3.75 -5.484372,8.824219 -5.484372,14.402344 0,9.3984376 6.222652,17.87109388 16.769532,17.87109388 2.76562,0 8.92969,-1.5 14.46094,-8.47265628 z M 113.6743,-34.570816 c 4.48828,0 7.2539,4.089844 7.2539,8.53125 0,1.089844 -0.51562,1.546875 -2.01562,1.605469 -4.78125,0.175781 -9.32813,0.175781 -13.88672,0.175781 1.20703,-7.03125 4.89844,-10.3125 8.58984,-10.3125 z m 50.58984,25.2421879 c -3.10547,2.8710937 -6.38672,4.1953125 -9.90234,4.1953125 -5.94141,0 -12.32813,-4.6054688 -12.50391,-15.4921874 9.90234,-0.351563 20.625,-1.207031 22.18359,-1.441406 1.54688,-0.351563 2.01563,-1.089844 2.01563,-2.707032 0,-6.679687 -5.82422,-12.960937 -13.13672,-12.960937 h -0.0586 c -4.5586,0 -9.22266,2.414062 -12.90235,6.445312 -3.45703,3.75 -5.48437,8.824219 -5.48437,14.402344 0,9.3984376 6.22265,17.87109388 16.76953,17.87109388 2.76562,0 8.92969,-1.5 14.46094,-8.47265628 z M 150.90476,-34.570816 c 4.48829,0 7.25391,4.089844 7.25391,8.53125 0,1.089844 -0.51562,1.546875 -2.01562,1.605469 -4.78125,0.175781 -9.32813,0.175781 -13.88672,0.175781 1.20703,-7.03125 4.89843,-10.3125 8.58984,-10.3125 z M 213.69969,-5.03125e-4 V -2.2505031 c -4.95704,-0.6328125 -5.47266,-0.8554688 -5.47266,-6.6210938 V -24.598159 c 0,-8.355469 -4.32422,-13.136719 -11.12109,-13.136719 -2.53125,0 -4.66407,0.914062 -7.08985,2.472656 -2.1914,1.441406 -4.03125,2.765625 -5.7539,4.03125 v -6.796875 c -3.98438,1.617188 -8.41407,2.707031 -12.50391,3.339844 v 2.132812 c 4.48828,0.808594 5.0625,1.160157 5.0625,6.632813 v 16.9335936 c 0,5.6484375 -0.45703,6.046875 -6.16406,6.7382813 v 2.249999975 h 19.01953 V -2.2505031 c -4.95703,-0.515625 -5.41406,-0.8554688 -5.41406,-6.6210938 V -28.348159 c 2.58984,-2.132813 5.7539,-4.148438 8.98828,-4.148438 5.23828,0 7.60547,3.515625 7.60547,9.386719 v 13.7226561 c 0,5.9296875 -0.58594,6.6210938 -5.47266,7.1367188 v 2.249999975 z m 39.34863,-3.457031275 -0.85547,-2.25 c -0.92578,0.5273438 -2.07422,0.9257813 -3.05859,0.9257813 -1.5586,0 -3.0586,-1.265625 -3.0586,-5.015625 V -24.949722 c 0,-4.488281 -0.91406,-8.003906 -4.08984,-10.652344 -1.95703,-1.5 -4.42969,-2.132812 -7.13672,-2.132812 -4.78125,0.914062 -10.60547,4.148437 -13.07813,5.929687 -1.67578,1.148438 -2.76562,2.191407 -2.76562,3.457032 0,2.015625 2.23828,3.75 3.91406,3.75 1.32422,0 2.25,-0.585938 2.76563,-2.074219 0.75,-2.707031 1.5,-4.617188 2.58984,-5.707031 0.86719,-0.925782 2.13281,-1.5 3.63281,-1.5 4.08985,0 6.85547,3.222656 6.85547,9.28125 v 1.488281 c -1.83984,1.558594 -7.78125,3.75 -13.2539,5.484375 -4.66407,1.488281 -6.97266,4.03125 -6.97266,8.2382811 0,5.296875 4.20703,10.37109378 10.60547,10.37109378 2.42578,0 6.45703,-3.05859378 9.91406,-5.24999998 0.39844,1.3242187 0.91406,2.484375 2.07422,3.57421873 0.91406,0.92578125 2.76562,1.67578125 4.37109,1.67578125 z m -14.28516,-3.5742187 c -1.5,1.5 -4.26562,2.765625 -6.28125,2.765625 -2.53125,0 -5.87109,-1.9570313 -5.87109,-6.3984379 0,-3.105468 1.83984,-4.78125 5.17969,-6.222656 1.79296,-0.796875 5.25,-2.414062 6.97265,-3.28125 z m 0,0" style="fill:#66b701;fill-opacity:1;fill-rule:nonzero;stroke:none" aria-label="Greena" transform="matrix(1.3333333,0,0,1.3333333,1080.3679,657.53973)" />
    <path id="path16" d="m 0,0 c 2.234,-8.064 4.468,-16.128 6.702,-24.191 l 4.915,28.404 c 1.148,4.927 3.342,11.859 7.766,19.297 4.013,6.747 8.511,11.64 12.021,14.916 C 27.565,33.594 22.804,26.452 19.277,16.979 17.061,11.028 15.856,5.565 15.191,1.021 21.211,3.544 29.309,7.936 36.766,15.638 56.255,35.769 55.689,62.32 55.404,68.426 49.43,67.193 43.006,65.036 36.638,61.404 6.363,44.136 0.898,6.942 0,0" style="fill:#66b701;fill-opacity:1;fill-rule:nonzero;stroke:none" transform="matrix(1.3333333,0,0,-1.3333333,917.758,603.234)" />
    <path id="path17" d="m 0,0 c 5.769,-1.057 17.732,-4.094 28.723,-13.915 6.4,-5.718 10.318,-11.811 12.639,-16.213 2.234,-8.064 4.468,-16.127 6.702,-24.191 l -5.298,-3 -4.596,15.83 c -0.528,0.842 -1.317,2.085 -2.298,3.574 -2.21,3.357 -4.69,7.123 -6.766,9.575 -1.96,2.315 -5.379,5.606 -11.234,8.425 2.542,-1.765 6.237,-4.775 9.575,-9.447 3.379,-4.729 5.032,-9.259 5.872,-12.255 -4.216,0.85 -7.638,2.248 -10.34,3.702 C 4.183,-27.798 0.593,-4.364 0,0" style="fill:#66b701;fill-opacity:1;fill-rule:nonzero;stroke:none" transform="matrix(1.3333333,0,0,-1.3333333,862.60893,563.06387)" />
    <path id="path23" d="m 759.106,323.51 c -10.412,-2.863 -22.981,-7.258 -36.511,-14.169 v 0 c -11.32,-5.784 -20.752,-12.019 -28.34,-17.746 v 0 c -29.106,-16.49 -54.927,-19.965 -64.086,-9.446 v 0 c -1.779,2.044 -3.497,5.269 -3.829,10.596 v 0 c -0.106,2.852 0.114,6.477 1.276,10.468 v 0 c 3.304,11.341 11.878,17.575 15.064,19.659 v 0 c -0.002,0 -11.774,-6.216 -18.766,-20.17 v 0 c -1.838,-3.668 -10.481,-20.917 -3.16,-32.426 v 0 c 10.613,-16.68 46.211,-7.868 48.99,-7.148 v 0 c 11.3,2.923 19.444,7.311 31.405,15.702 v 0 c 14.264,10.008 25.218,18.247 32.68,24 v 0 c 6.848,5.279 12.942,10.149 22.596,14.936 v 0 c 7.419,3.678 13.972,5.834 18.51,7.106 v 0 c -5.276,-0.454 -10.552,-0.907 -15.829,-1.362" transform="matrix(1.3333333,0,0,-1.3333333,0,1024)" style="fill:url(#linearGradient23);stroke:none" />
    <path id="path28" d="m 776.857,321.795 c -17.639,-5.415 -31.576,-20.512 -47.772,-33.837 v 0 c -4.989,-4.105 -12.954,-10.314 -23.617,-17.107 v 0 c -2.041,-1.281 -4.758,-2.894 -8.044,-4.596 v 0 c 0,0 -5.556,-2.877 -11.108,-5.007 v 0 c -7.184,-2.755 -23.467,-5.886 -44.934,-5.843 v 0 c 15.851,-0.883 32.834,-1.133 50.809,-0.445 v 0 c 7.751,0.296 15.286,0.752 22.595,1.337 v 0 c 14.358,3.17 49.667,13.155 68.553,44.554 v 0 c 2.708,4.5 4.84,9.045 6.511,13.532 v 0 c 0.507,1.856 1.148,5.256 -0.638,7.277 v 0 c -0.433,0.489 -1.575,1.538 -4.666,1.538 v 0 c -1.811,0 -4.29,-0.36 -7.689,-1.403" transform="matrix(1.3333333,0,0,-1.3333333,0,1024)" style="fill:url(#linearGradient28);stroke:none" />
    <path id="path29" d="M 61.417994,-25.523941 H 38.660181 v 2.414063 c 8.753907,0.691406 9.28125,1.277344 9.28125,7.5 v 6.9140624 c 0,3.2226562 -1.042968,4.4296875 -2.882812,5.4140625 -1.851563,0.9140625 -4.617188,1.5 -7.441406,1.5 -16.875,0 -24.246094,-14.1796879 -24.246094,-26.3320309 0,-15.386719 9.785156,-24.832032 22.980469,-24.832032 8.648437,0 15.445312,3.105469 17.519531,13.59375 l 2.53125,-0.574218 c -0.691406,-5.988282 -1.089844,-10.664063 -1.324219,-13.59375 -2.941406,-0.644532 -9.902344,-2.542969 -17.402344,-2.542969 -17.507812,0 -33.878906,9.679687 -33.878906,29.039062 0,16.769532 13.136719,28.3476566 32.730469,28.3476566 7.207031,0 14.578125,-2.01562497 20.050781,-3.28125 -0.515625,-2.1328125 -0.574219,-4.8398437 -0.574219,-7.78125 v -7.0312496 c 0,-5.121094 0.28125,-5.53125 5.414063,-6.339844 z m 17.399414,-3.117187 v -9.386719 c -4.382813,1.792969 -8.414063,2.765625 -12.679688,3.457031 v 1.898438 c 4.78125,0.691406 5.238282,1.042969 5.238282,6.398437 v 17.4609379 c 0,5.53125 -0.75,6.046875 -5.929688,6.5625 V -5.03125e-4 H 85.895533 V -2.2505031 c -6.679688,-0.515625 -7.078125,-1.03125 -7.078125,-6.5625 V -23.848159 c 1.839844,-4.5 4.429687,-6.972657 6.621094,-6.972657 1.441406,0 2.425781,0.515625 3.75,1.722657 0.515625,0.457031 1.265625,0.632812 2.296875,0.234375 1.851562,-0.867188 3,-2.589844 3,-4.558594 0,-2.074219 -2.074219,-4.3125 -5.191407,-4.3125 -3.972656,0 -7.488281,4.488281 -10.3125,9.09375 z M 127.0342,-9.3286281 c -3.10546,2.8710937 -6.38671,4.1953125 -9.90234,4.1953125 -5.94141,0 -12.32812,-4.6054688 -12.50391,-15.4921874 9.90235,-0.351563 20.625,-1.207031 22.1836,-1.441406 1.54687,-0.351563 2.01562,-1.089844 2.01562,-2.707032 0,-6.679687 -5.82422,-12.960937 -13.13672,-12.960937 h -0.0586 c -4.55859,0 -9.22266,2.414062 -12.90234,6.445312 -3.457034,3.75 -5.484378,8.824219 -5.484378,14.402344 0,9.3984376 6.222658,17.87109388 16.769528,17.87109388 2.76563,0 8.92969,-1.5 14.46094,-8.47265628 z M 113.67483,-34.570816 c 4.48828,0 7.25391,4.089844 7.25391,8.53125 0,1.089844 -0.51563,1.546875 -2.01563,1.605469 -4.78125,0.175781 -9.32812,0.175781 -13.88672,0.175781 1.20703,-7.03125 4.89844,-10.3125 8.58985,-10.3125 z m 50.58984,25.2421879 c -3.10547,2.8710937 -6.38672,4.1953125 -9.90234,4.1953125 -5.94141,0 -12.32813,-4.6054688 -12.50391,-15.4921874 9.90235,-0.351563 20.625,-1.207031 22.1836,-1.441406 1.54687,-0.351563 2.01562,-1.089844 2.01562,-2.707032 0,-6.679687 -5.82422,-12.960937 -13.13672,-12.960937 h -0.0586 c -4.55859,0 -9.22266,2.414062 -12.90234,6.445312 -3.45704,3.75 -5.48438,8.824219 -5.48438,14.402344 0,9.3984376 6.22266,17.87109388 16.76953,17.87109388 2.76563,0 8.92969,-1.5 14.46094,-8.47265628 z M 150.9053,-34.570816 c 4.48828,0 7.2539,4.089844 7.2539,8.53125 0,1.089844 -0.51562,1.546875 -2.01562,1.605469 -4.78125,0.175781 -9.32813,0.175781 -13.88672,0.175781 1.20703,-7.03125 4.89844,-10.3125 8.58984,-10.3125 z M 213.70022,-5.03125e-4 V -2.2505031 c -4.95703,-0.6328125 -5.47266,-0.8554688 -5.47266,-6.6210938 V -24.598159 c 0,-8.355469 -4.32421,-13.136719 -11.12109,-13.136719 -2.53125,0 -4.66406,0.914062 -7.08984,2.472656 -2.19141,1.441406 -4.03125,2.765625 -5.75391,4.03125 v -6.796875 c -3.98437,1.617188 -8.41406,2.707031 -12.50391,3.339844 v 2.132812 c 4.48829,0.808594 5.0625,1.160157 5.0625,6.632813 v 16.9335936 c 0,5.6484375 -0.45703,6.046875 -6.16406,6.7382813 v 2.249999975 h 19.01953 V -2.2505031 c -4.95703,-0.515625 -5.41406,-0.8554688 -5.41406,-6.6210938 V -28.348159 c 2.58984,-2.132813 5.75391,-4.148438 8.98828,-4.148438 5.23828,0 7.60547,3.515625 7.60547,9.386719 v 13.7226561 c 0,5.9296875 -0.58594,6.6210938 -5.47266,7.1367188 v 2.249999975 z m 39.34863,-3.457031275 -0.85547,-2.25 c -0.92578,0.5273438 -2.07421,0.9257813 -3.05859,0.9257813 -1.55859,0 -3.05859,-1.265625 -3.05859,-5.015625 V -24.949722 c 0,-4.488281 -0.91407,-8.003906 -4.08985,-10.652344 -1.95703,-1.5 -4.42968,-2.132812 -7.13672,-2.132812 -4.78125,0.914062 -10.60546,4.148437 -13.07812,5.929687 -1.67578,1.148438 -2.76563,2.191407 -2.76563,3.457032 0,2.015625 2.23829,3.75 3.91407,3.75 1.32422,0 2.25,-0.585938 2.76562,-2.074219 0.75,-2.707031 1.5,-4.617188 2.58985,-5.707031 0.86718,-0.925782 2.13281,-1.5 3.63281,-1.5 4.08984,0 6.85547,3.222656 6.85547,9.28125 v 1.488281 c -1.83985,1.558594 -7.78125,3.75 -13.25391,5.484375 -4.66406,1.488281 -6.97266,4.03125 -6.97266,8.2382811 0,5.296875 4.20704,10.37109378 10.60547,10.37109378 2.42578,0 6.45703,-3.05859378 9.91407,-5.24999998 0.39843,1.3242187 0.91406,2.484375 2.07421,3.57421873 0.91407,0.92578125 2.76563,1.67578125 4.3711,1.67578125 z M 238.7637,-7.0317531 c -1.5,1.5 -4.26563,2.765625 -6.28125,2.765625 -2.53125,0 -5.8711,-1.9570313 -5.8711,-6.3984379 0,-3.105468 1.83985,-4.78125 5.17969,-6.222656 1.79297,-0.796875 5.25,-2.414062 6.97266,-3.28125 z m 0,0" style="fill:#ffffff;fill-opacity:1;fill-rule:nonzero;stroke:none" aria-label="Greena" transform="matrix(1.3333333,0,0,1.3333333,407.68747,657.53973)" />
    <path id="path30" d="m 0,0 c 2.234,-8.064 4.468,-16.128 6.702,-24.191 l 4.915,28.404 c 1.148,4.927 3.342,11.859 7.766,19.297 4.013,6.747 8.511,11.64 12.021,14.916 C 27.565,33.594 22.804,26.452 19.277,16.979 17.061,11.028 15.856,5.565 15.191,1.021 21.211,3.544 29.309,7.936 36.766,15.638 56.255,35.769 55.689,62.32 55.404,68.426 49.43,67.193 43.006,65.036 36.638,61.404 6.363,44.136 0.898,6.942 0,0" style="fill:#ffffff;fill-opacity:1;fill-rule:nonzero;stroke:none" transform="matrix(1.3333333,0,0,-1.3333333,245.078,603.234)" />
    <path id="path31" d="m 0,0 c 5.769,-1.057 17.732,-4.094 28.723,-13.915 6.4,-5.718 10.318,-11.811 12.639,-16.213 2.234,-8.064 4.468,-16.127 6.702,-24.191 l -5.298,-3 -4.596,15.83 c -0.528,0.842 -1.317,2.085 -2.298,3.574 -2.21,3.357 -4.69,7.123 -6.766,9.575 -1.96,2.315 -5.379,5.606 -11.234,8.425 2.542,-1.765 6.237,-4.775 9.575,-9.447 3.379,-4.729 5.032,-9.259 5.872,-12.255 -4.216,0.85 -7.638,2.248 -10.34,3.702 C 4.183,-27.798 0.593,-4.364 0,0" style="fill:#ffffff;fill-opacity:1;fill-rule:nonzero;stroke:none" transform="matrix(1.3333333,0,0,-1.3333333,189.92907,563.06387)" />
    <path id="path32" d="m 0,0 c -3.186,-2.084 -11.76,-8.318 -15.064,-19.66 -1.162,-3.99 -1.381,-7.616 -1.276,-10.468 0.332,-5.327 2.05,-8.551 3.829,-10.595 9.159,-10.52 34.981,-7.044 64.085,9.446 7.59,5.727 17.021,11.962 28.341,17.745 13.53,6.912 26.098,11.308 36.511,14.17 5.276,0.454 10.553,0.908 15.829,1.362 -4.537,-1.272 -11.091,-3.428 -18.51,-7.106 -9.655,-4.787 -15.748,-9.658 -22.596,-14.937 -7.462,-5.752 -18.416,-13.991 -32.681,-24 -11.96,-8.391 -20.104,-12.778 -31.404,-15.702 -2.779,-0.719 -38.377,-9.531 -48.989,7.149 -7.323,11.51 1.321,28.757 3.159,32.426 C -11.771,-6.211 0.006,0.004 0,0" style="fill:#ffffff;fill-opacity:1;fill-rule:nonzero;stroke:none" transform="matrix(1.3333333,0,0,-1.3333333,184.22693,593.5036)" />
    <path id="path33" d="m 0,0 c 0.508,1.857 1.148,5.257 -0.638,7.277 -0.687,0.775 -3.156,2.959 -12.355,0.135 -17.639,-5.416 -31.577,-20.511 -47.773,-33.838 -4.988,-4.104 -12.953,-10.313 -23.617,-17.106 -2.041,-1.281 -4.757,-2.894 -8.043,-4.596 0,0 -5.556,-2.877 -11.108,-5.006 -7.184,-2.755 -23.467,-5.887 -44.934,-5.845 15.851,-0.882 32.833,-1.131 50.808,-0.444 7.752,0.296 15.287,0.751 22.596,1.338 14.358,3.169 49.667,13.154 68.553,44.553 C -3.804,-9.032 -1.672,-4.487 0,0" style="fill:#ffffff;fill-opacity:1;fill-rule:nonzero;stroke:none" transform="matrix(1.3333333,0,0,-1.3333333,380.45387,604.82267)" />
    <path id="path34" d="M 61.418411,-25.523956 H 38.660598 v 2.414062 c 8.753907,0.691407 9.28125,1.277344 9.28125,7.5 v 6.9140628 c 0,3.2226562 -1.042968,4.4296875 -2.882812,5.4140625 -1.851563,0.9140625 -4.617188,1.5 -7.441406,1.5 -16.875,0 -24.246094,-14.1796873 -24.246094,-26.3320313 0,-15.386719 9.785156,-24.832031 22.980469,-24.832031 8.648437,0 15.445312,3.105469 17.519531,13.59375 l 2.53125,-0.574219 c -0.691406,-5.988281 -1.089844,-10.664062 -1.324219,-13.59375 -2.941406,-0.644531 -9.902344,-2.542969 -17.402344,-2.542969 -17.507812,0 -33.8789058,9.679688 -33.8789058,29.039063 0,16.769531 13.1367188,28.347656 32.7304688,28.347656 7.207031,0 14.578125,-2.015625 20.050781,-3.28125 -0.515625,-2.1328125 -0.574219,-4.8398437 -0.574219,-7.78125 v -7.03125 c 0,-5.121094 0.28125,-5.53125 5.414063,-6.339844 z m 17.399414,-3.117188 v -9.386718 c -4.382813,1.792968 -8.414063,2.765625 -12.679688,3.457031 v 1.898437 c 4.78125,0.691407 5.238282,1.042969 5.238282,6.398438 v 17.4609373 c 0,5.53125 -0.75,6.046875 -5.929688,6.5625 V -5.1875e-4 H 85.89595 V -2.2505187 c -6.679688,-0.515625 -7.078125,-1.03125 -7.078125,-6.5625 V -23.848175 c 1.839844,-4.5 4.429687,-6.972656 6.621094,-6.972656 1.441406,0 2.425781,0.515625 3.75,1.722656 0.515625,0.457031 1.265625,0.632813 2.296875,0.234375 1.851562,-0.867187 3,-2.589844 3,-4.558594 0,-2.074218 -2.074219,-4.3125 -5.191407,-4.3125 -3.972656,0 -7.488281,4.488282 -10.3125,9.09375 z m 48.216795,19.3125003 c -3.10547,2.8710937 -6.38672,4.1953125 -9.90234,4.1953125 -5.94141,0 -12.32813,-4.6054688 -12.50391,-15.4921878 9.90235,-0.351562 20.625,-1.207031 22.1836,-1.441406 1.54687,-0.351562 2.01562,-1.089844 2.01562,-2.707031 0,-6.679688 -5.82422,-12.960938 -13.13672,-12.960938 h -0.0586 c -4.5586,0 -9.22266,2.414063 -12.90235,6.445313 -3.457027,3.75 -5.484371,8.824219 -5.484371,14.402344 0,9.398437 6.222661,17.87109325 16.769531,17.87109325 2.76563,0 8.92969,-1.5 14.46094,-8.47265625 z M 113.67525,-34.570831 c 4.48828,0 7.2539,4.089844 7.2539,8.53125 0,1.089844 -0.51562,1.546875 -2.01562,1.605469 -4.78125,0.175781 -9.32813,0.175781 -13.88672,0.175781 1.20703,-7.03125 4.89844,-10.3125 8.58984,-10.3125 z m 50.58984,25.2421873 c -3.10547,2.8710937 -6.38672,4.1953125 -9.90234,4.1953125 -5.94141,0 -12.32813,-4.6054688 -12.50391,-15.4921878 9.90234,-0.351562 20.625,-1.207031 22.18359,-1.441406 1.54688,-0.351562 2.01563,-1.089844 2.01563,-2.707031 0,-6.679688 -5.82422,-12.960938 -13.13672,-12.960938 h -0.0586 c -4.5586,0 -9.22266,2.414063 -12.90235,6.445313 -3.45703,3.75 -5.48437,8.824219 -5.48437,14.402344 0,9.398437 6.22265,17.87109325 16.76953,17.87109325 2.76562,0 8.92969,-1.5 14.46094,-8.47265625 z M 150.90572,-34.570831 c 4.48828,0 7.2539,4.089844 7.2539,8.53125 0,1.089844 -0.51562,1.546875 -2.01562,1.605469 -4.78125,0.175781 -9.32813,0.175781 -13.88672,0.175781 1.20703,-7.03125 4.89844,-10.3125 8.58984,-10.3125 z M 213.70064,-5.1875e-4 V -2.2505187 c -4.95703,-0.6328125 -5.47266,-0.8554688 -5.47266,-6.6210938 V -24.598175 c 0,-8.355469 -4.32422,-13.136719 -11.12109,-13.136719 -2.53125,0 -4.66407,0.914063 -7.08985,2.472657 -2.1914,1.441406 -4.03125,2.765625 -5.7539,4.03125 v -6.796875 c -3.98438,1.617187 -8.41407,2.707031 -12.50391,3.339843 v 2.132813 c 4.48828,0.808594 5.0625,1.160156 5.0625,6.632812 V -8.9888 c 0,5.6484375 -0.45703,6.046875 -6.16406,6.7382813 V -5.1875e-4 H 189.6772 V -2.2505187 c -4.95703,-0.515625 -5.41406,-0.8554688 -5.41406,-6.6210938 V -28.348175 c 2.58984,-2.132812 5.7539,-4.148437 8.98828,-4.148437 5.23828,0 7.60547,3.515625 7.60547,9.386718 v 13.7226565 c 0,5.9296875 -0.58594,6.6210938 -5.47266,7.1367188 v 2.24999995 z m 39.34863,-3.45703125 -0.85547,-2.25 c -0.92578,0.5273438 -2.07422,0.9257813 -3.05859,0.9257813 -1.5586,0 -3.0586,-1.265625 -3.0586,-5.015625 V -24.949737 c 0,-4.488282 -0.91406,-8.003907 -4.08984,-10.652344 -1.95703,-1.5 -4.42969,-2.132813 -7.13672,-2.132813 -4.78125,0.914063 -10.60547,4.148438 -13.07812,5.929688 -1.67578,1.148437 -2.76563,2.191406 -2.76563,3.457031 0,2.015625 2.23828,3.75 3.91406,3.75 1.32422,0 2.25,-0.585937 2.76563,-2.074219 0.75,-2.707031 1.5,-4.617187 2.58984,-5.707031 0.86719,-0.925781 2.13282,-1.5 3.63282,-1.5 4.08984,0 6.85546,3.222656 6.85546,9.28125 v 1.488281 c -1.83984,1.558594 -7.78125,3.75 -13.2539,5.484375 -4.66406,1.488282 -6.97266,4.03125 -6.97266,8.2382815 0,5.296875 4.20703,10.37109375 10.60547,10.37109375 2.42578,0 6.45703,-3.05859375 9.91406,-5.24999995 0.39844,1.3242187 0.91407,2.484375 2.07422,3.5742187 0.91406,0.92578125 2.76563,1.67578125 4.3711,1.67578125 z m -14.28516,-3.5742187 c -1.5,1.5 -4.26562,2.765625 -6.28125,2.765625 -2.53125,0 -5.87109,-1.9570313 -5.87109,-6.3984373 0,-3.105469 1.83984,-4.78125 5.17969,-6.222656 1.79297,-0.796875 5.25,-2.414063 6.97265,-3.28125 z m 0,0" style="fill:#ffffff;fill-opacity:1;fill-rule:nonzero;stroke:none" aria-label="Greena" transform="matrix(1.3333333,0,0,1.3333333,1202.8471,212.73507)" />
    <path id="path35" d="m 0,0 c 2.234,-8.064 4.468,-16.128 6.702,-24.191 l 4.915,28.404 c 1.148,4.927 3.342,11.859 7.766,19.297 4.013,6.747 8.511,11.64 12.021,14.916 C 27.565,33.594 22.804,26.452 19.277,16.979 17.061,11.028 15.856,5.565 15.191,1.021 21.211,3.544 29.309,7.936 36.766,15.638 56.255,35.769 55.689,62.32 55.404,68.426 49.43,67.193 43.006,65.036 36.638,61.404 6.363,44.136 0.898,6.942 0,0" style="fill:#66b701;fill-opacity:1;fill-rule:nonzero;stroke:none" transform="matrix(1.3333333,0,0,-1.3333333,912.38827,208.32907)" />
    <path id="path36" d="m 0,0 c 5.769,-1.057 17.732,-4.094 28.723,-13.915 6.4,-5.718 10.318,-11.811 12.639,-16.213 2.234,-8.064 4.468,-16.127 6.702,-24.191 l -5.298,-3 -4.596,15.83 c -0.528,0.842 -1.317,2.085 -2.298,3.574 -2.21,3.357 -4.69,7.123 -6.766,9.575 -1.96,2.315 -5.379,5.606 -11.234,8.425 2.542,-1.765 6.237,-4.775 9.575,-9.447 3.379,-4.729 5.032,-9.259 5.872,-12.255 -4.216,0.85 -7.639,2.248 -10.34,3.702 C 4.183,-27.798 0.593,-4.364 0,0" style="fill:#66b701;fill-opacity:1;fill-rule:nonzero;stroke:none" transform="matrix(1.3333333,0,0,-1.3333333,857.23933,168.1588)" />
    <path id="path42" d="m 755.078,619.69 c -10.412,-2.863 -22.98,-7.259 -36.51,-14.171 v 0 c -11.32,-5.782 -20.751,-12.018 -28.341,-17.744 v 0 C 661.123,571.284 635.3,567.808 626.143,578.327 v 0 c -1.781,2.045 -3.499,5.269 -3.831,10.596 v 0 c -0.104,2.852 0.115,6.477 1.277,10.469 v 0 c 3.303,11.341 11.878,17.575 15.064,19.66 v 0 c -10e-4,-10e-4 -11.773,-6.217 -18.766,-20.171 v 0 c -1.838,-3.669 -10.482,-20.916 -3.159,-32.425 v 0 c 10.612,-16.681 46.21,-7.868 48.988,-7.149 v 0 c 11.301,2.923 19.445,7.31 31.405,15.701 v 0 c 14.265,10.008 25.219,18.249 32.681,24 v 0 c 6.847,5.28 12.941,10.151 22.595,14.937 v 0 c 7.42,3.678 13.974,5.835 18.512,7.106 v 0 c -5.277,-0.454 -10.554,-0.908 -15.831,-1.361" transform="matrix(1.3333333,0,0,-1.3333333,0,1024)" style="fill:url(#linearGradient42);stroke:none" />
    <path id="path47" d="m 772.83,617.973 c -17.638,-5.415 -31.577,-20.511 -47.773,-33.837 v 0 c -4.989,-4.104 -12.954,-10.313 -23.617,-17.106 v 0 c -2.041,-1.282 -4.757,-2.895 -8.042,-4.596 v 0 c 0,0 -5.557,-2.877 -11.109,-5.006 v 0 c -7.185,-2.755 -23.466,-5.887 -44.934,-5.845 v 0 c 15.851,-0.883 32.834,-1.131 50.808,-0.445 v 0 c 7.752,0.297 15.287,0.752 22.597,1.339 v 0 c 14.357,3.169 49.666,13.154 68.553,44.552 v 0 c 2.706,4.5 4.838,9.046 6.51,13.533 v 0 c 0.508,1.856 1.148,5.257 -0.638,7.276 v 0 c -0.433,0.489 -1.575,1.538 -4.666,1.538 v 0 c -1.811,10e-4 -4.291,-0.359 -7.689,-1.403" transform="matrix(1.3333333,0,0,-1.3333333,0,1024)" style="fill:url(#linearGradient47);stroke:none" />
  </g>
  <g id="layer-MC1" />
  <g id="layer-MC2" />
  <g id="layer-MC3" />
</svg>